<svg width="20" height="25" viewBox="0 0 20 25" fill="none" xmlns="http://www.w3.org/2000/svg">
<path d="M9.99999 12.5C8.71666 12.5 7.66666 11.45 7.66666 10.1667C7.66666 8.88337 8.71666 7.83337 9.99999 7.83337C11.2833 7.83337 12.3333 8.88337 12.3333 10.1667C12.3333 11.45 11.2833 12.5 9.99999 12.5ZM17 10.4C17 6.16504 13.9083 3.16671 9.99999 3.16671C6.09166 3.16671 2.99999 6.16504 2.99999 10.4C2.99999 13.13 5.27499 16.7467 9.99999 21.0634C14.725 16.7467 17 13.13 17 10.4ZM9.99999 0.833374C14.9 0.833374 19.3333 4.59004 19.3333 10.4C19.3333 14.2734 16.2183 18.8584 9.99999 24.1667C3.78166 18.8584 0.666656 14.2734 0.666656 10.4C0.666656 4.59004 5.09999 0.833374 9.99999 0.833374Z" fill="#3C3C43"/>
</svg>
