<svg width="336" height="278" viewBox="0 0 336 278" fill="none" xmlns="http://www.w3.org/2000/svg">
<path d="M49.0598 252.366C114.492 286.545 220.531 286.545 285.948 252.366C351.365 218.187 351.38 162.793 285.948 128.614C220.515 94.4355 114.477 94.4432 49.0598 128.614C-16.3571 162.785 -16.3494 218.195 49.0598 252.366Z" fill="#EEEEF1"/>
<path d="M29.6534 197.88H32.4092C33.6723 193.662 34.5003 189.326 34.8802 184.94C35.4807 176.819 31.547 164.386 24.3418 160.222C17.1366 156.057 13.2337 161.207 15.6509 165.61C18.068 170.014 26.2201 182.538 26.3279 193.315L29.6534 197.88Z" fill="#F58634"/>
<path d="M28.9913 197.88H29.7611C30.5132 192.562 30.5132 187.164 29.7611 181.845C28.5141 171.307 25.05 166.411 21.8323 163.009C21.7618 162.934 21.6647 162.891 21.5622 162.888C21.4597 162.885 21.3602 162.923 21.2857 162.993C21.2112 163.064 21.1677 163.161 21.1648 163.263C21.1619 163.366 21.1999 163.465 21.2703 163.54C24.4034 166.842 27.7751 171.615 28.9682 181.93C29.7308 187.219 29.7386 192.589 28.9913 197.88Z" fill="white"/>
<path d="M29.8766 197.88C28.4602 191.198 22.0247 183.254 15.951 181.884C8.90745 180.344 5.48188 184.062 6.49031 187.272C7.49873 190.482 13.0643 191.976 18.4683 194.493C20.2879 195.335 21.9512 196.481 23.3872 197.88H29.8766Z" fill="#F58634"/>
<path d="M27.3132 197.88H28.1368C25.1577 190.39 18.3836 185.048 12.8411 184.555C12.7909 184.55 12.7402 184.555 12.6919 184.569C12.6436 184.584 12.5988 184.608 12.56 184.64C12.5213 184.673 12.4894 184.712 12.4663 184.757C12.4431 184.802 12.4292 184.851 12.4254 184.901C12.419 184.952 12.423 185.003 12.4372 185.052C12.4514 185.1 12.4756 185.146 12.5081 185.185C12.5406 185.224 12.5808 185.256 12.6261 185.278C12.6715 185.301 12.7211 185.314 12.7718 185.317C18.0064 185.787 24.4033 190.806 27.3132 197.88Z" fill="white"/>
<path d="M278.373 127.452L284.139 130.477L284.624 126.867C281.768 118.815 284.116 109.685 287.202 105.882C290.289 102.08 289.697 99.2852 288.58 98.0382C287.464 96.7911 283.23 95.8443 279.043 100.74C274.855 105.636 273.893 111.579 274.593 117.575C275.04 121.324 277.01 125.173 278.373 127.452Z" fill="#F58634"/>
<path opacity="0.2" d="M278.373 127.452L284.139 130.477L284.624 126.867C281.768 118.815 284.116 109.685 287.202 105.882C290.289 102.08 289.697 99.2852 288.58 98.0382C287.464 96.7911 283.23 95.8443 279.043 100.74C274.855 105.636 273.893 111.579 274.593 117.575C275.04 121.324 277.01 125.173 278.373 127.452Z" fill="#3C3C43"/>
<path d="M280.752 128.699L281.891 129.299C281.88 129.278 281.867 129.257 281.852 129.238C280.22 127.298 278.111 117.799 278.996 112.233C280.09 105.359 283.615 100.871 286.633 98.9696C286.67 98.9469 286.702 98.9169 286.727 98.8816C286.752 98.8462 286.77 98.8061 286.779 98.7637C286.789 98.7214 286.789 98.6775 286.781 98.6349C286.773 98.5922 286.757 98.5516 286.733 98.5154C286.684 98.4418 286.609 98.3902 286.522 98.3715C286.436 98.3528 286.346 98.3685 286.271 98.4153C283.192 100.394 279.466 105.036 278.334 112.133C277.518 117.314 279.15 125.52 280.752 128.699Z" fill="white"/>
<path d="M284.254 113.711C285.94 117.845 285.932 119.869 283.184 120.293C280.705 120.662 277.696 123.672 280.49 128.56L296.84 137.136C296.881 136.222 297.107 135.326 297.504 134.502C297.901 133.677 298.461 132.942 299.15 132.34C301.836 129.653 304.315 127.629 303.93 124.642C303.545 121.655 300.951 118.776 300.52 116.174C300.089 113.573 301.413 112.087 304.238 109.169C307.063 106.252 309.626 101.725 305.854 99.6624C302.083 97.5994 297.764 101.133 295.963 103.511C294.161 105.89 292.514 106.937 288.965 106.737C285.417 106.537 282.568 109.577 284.254 113.711Z" fill="#F58634"/>
<path d="M288.881 132.964C288.804 120.277 297.895 105.42 302.952 102.418C303.027 102.371 303.081 102.296 303.102 102.21C303.124 102.124 303.111 102.034 303.068 101.956C303.022 101.882 302.949 101.829 302.864 101.807C302.779 101.786 302.69 101.798 302.614 101.841C297.487 104.92 288.319 119.785 288.219 132.633L288.881 132.964Z" fill="white"/>
<path d="M291.313 119.777C291.244 119.793 291.171 119.785 291.107 119.754C291.042 119.723 290.99 119.672 290.959 119.608C289.49 116.868 288.254 114.01 287.264 111.063C287.251 111.022 287.246 110.978 287.25 110.935C287.253 110.891 287.266 110.849 287.286 110.811C287.306 110.772 287.333 110.738 287.366 110.71C287.4 110.682 287.438 110.66 287.48 110.647C287.521 110.634 287.565 110.629 287.608 110.633C287.651 110.637 287.693 110.649 287.732 110.669C287.771 110.689 287.805 110.716 287.833 110.75C287.861 110.783 287.882 110.821 287.895 110.863C288.876 113.769 290.097 116.588 291.544 119.292C291.585 119.371 291.594 119.463 291.568 119.548C291.542 119.632 291.484 119.704 291.406 119.746L291.313 119.777Z" fill="white"/>
<path d="M289.127 127.552C289.064 127.564 288.999 127.558 288.939 127.534C288.879 127.511 288.827 127.472 288.788 127.421C288.738 127.347 288.718 127.257 288.734 127.169C288.75 127.081 288.8 127.003 288.873 126.952C292.188 124.631 296.21 123.542 300.243 123.872C300.331 123.884 300.41 123.929 300.464 123.999C300.519 124.069 300.543 124.158 300.531 124.246C300.52 124.333 300.475 124.413 300.405 124.467C300.335 124.521 300.246 124.546 300.158 124.534C296.297 124.24 292.451 125.275 289.258 127.467C289.22 127.504 289.176 127.533 289.127 127.552Z" fill="white"/>
<path d="M192.518 50.057L173.758 39.226L155.006 50.057L173.758 60.888L192.518 50.057Z" fill="#C9C9C9"/>
<path d="M173.758 82.5576L192.518 71.7266V50.057L173.758 60.8879V82.5576Z" fill="#EBEBEB"/>
<path d="M177.376 75.3678C177.277 75.3696 177.179 75.3457 177.091 75.2985C176.972 75.211 176.876 75.0944 176.814 74.9596C176.752 74.8249 176.726 74.6766 176.737 74.5287V72.2193V72.05H176.853L178.654 70.9954V73.5588C178.652 73.8889 178.57 74.2136 178.416 74.5056C178.262 74.7977 178.04 75.0484 177.769 75.2369C177.652 75.3155 177.517 75.3608 177.376 75.3678ZM177.03 72.3887V74.5133C177.017 74.6122 177.029 74.7127 177.066 74.8055C177.102 74.8984 177.161 74.9805 177.238 75.0445C177.3 75.0723 177.369 75.0827 177.437 75.0746C177.504 75.0665 177.569 75.0401 177.623 74.9983C177.853 74.8374 178.043 74.6249 178.176 74.3776C178.31 74.1303 178.384 73.8551 178.392 73.5742V73.3894H177.723L177.592 72.4888L177.03 72.3887ZM177.954 73.0969H178.369V71.5188L177.292 72.1424L177.823 72.2424L177.954 73.0969Z" fill="#EEEEF1"/>
<path d="M177.7 77.1999C177.661 77.1999 177.624 77.1844 177.596 77.157C177.569 77.1296 177.553 77.0924 177.553 77.0536V75.1291C177.552 75.1096 177.555 75.0901 177.562 75.0719C177.569 75.0536 177.58 75.037 177.594 75.0232C177.607 75.0094 177.624 74.9987 177.642 74.9917C177.661 74.9848 177.68 74.9817 177.7 74.9829C177.738 74.9829 177.776 74.9983 177.803 75.0257C177.83 75.0531 177.846 75.0903 177.846 75.1291V77.0228C177.849 77.0442 177.848 77.0661 177.842 77.087C177.836 77.1079 177.826 77.1274 177.812 77.1441C177.799 77.1608 177.781 77.1744 177.762 77.184C177.742 77.1936 177.721 77.199 177.7 77.1999Z" fill="#EEEEF1"/>
<path d="M176.861 77.6848C176.835 77.6847 176.81 77.6774 176.788 77.6638C176.766 77.6502 176.749 77.6308 176.737 77.6078C176.727 77.5921 176.72 77.5742 176.717 77.5555C176.713 77.5367 176.715 77.5174 176.72 77.4991C176.725 77.4808 176.734 77.4638 176.746 77.4494C176.759 77.4349 176.774 77.4233 176.791 77.4154L178.462 76.4455C178.478 76.4358 178.497 76.4296 178.516 76.4271C178.535 76.4246 178.554 76.4258 178.573 76.4308C178.592 76.4358 178.609 76.4445 178.624 76.4562C178.64 76.468 178.652 76.4827 178.662 76.4994C178.679 76.5334 178.684 76.5728 178.674 76.6099C178.664 76.6469 178.64 76.6788 178.608 76.6995L176.93 77.6617L176.861 77.6848Z" fill="#EEEEF1"/>
<path d="M182.834 74.3593C182.781 74.3754 182.725 74.3754 182.672 74.3593C182.616 74.3216 182.571 74.2697 182.541 74.2089C182.512 74.148 182.498 74.0805 182.503 74.0129V73.6203C182.502 73.6015 182.505 73.5826 182.511 73.5649C182.518 73.5472 182.528 73.531 182.541 73.5173C182.554 73.5037 182.57 73.4927 182.587 73.4853C182.604 73.4779 182.623 73.474 182.642 73.4741C182.661 73.473 182.681 73.476 182.699 73.4829C182.717 73.4899 182.734 73.5006 182.748 73.5144C182.761 73.5282 182.772 73.5448 182.779 73.5631C182.786 73.5813 182.789 73.6008 182.788 73.6203V73.9436C182.788 74.0052 182.788 74.036 182.788 74.036C182.788 74.036 182.834 74.036 182.88 74.036C182.97 73.9547 183.041 73.8545 183.087 73.7428C183.134 73.631 183.155 73.5104 183.15 73.3894V70.8645C183.15 70.8456 183.154 70.8269 183.161 70.8096C183.168 70.7923 183.179 70.7766 183.193 70.7637C183.207 70.7507 183.223 70.7407 183.241 70.7342C183.258 70.7277 183.277 70.7249 183.296 70.7259C183.333 70.7259 183.368 70.7405 183.394 70.7665C183.42 70.7925 183.435 70.8277 183.435 70.8645V73.4356C183.44 73.607 183.407 73.7774 183.336 73.9336C183.265 74.0898 183.159 74.2275 183.027 74.3362C182.964 74.356 182.899 74.3639 182.834 74.3593Z" fill="#EEEEF1"/>
<path d="M181.31 72.1192V71.8729C181.346 71.2318 181.532 70.608 181.853 70.0519C182.173 69.4957 182.62 69.0225 183.157 68.6706C183.35 68.5089 183.587 68.4102 183.837 68.388C184.087 68.3657 184.338 68.4209 184.556 68.5462C184.773 68.6714 184.947 68.8606 185.054 69.088C185.16 69.3155 185.194 69.5702 185.151 69.8176V69.9022L181.31 72.1192ZM184.02 68.7014C183.765 68.7093 183.518 68.7865 183.304 68.9246C182.847 69.2261 182.459 69.6218 182.167 70.0851C181.875 70.5484 181.685 71.0687 181.61 71.6112L184.859 69.7406C184.871 69.5589 184.836 69.3771 184.758 69.2126C184.68 69.0482 184.561 68.9066 184.412 68.8014C184.293 68.7336 184.157 68.6991 184.02 68.7014Z" fill="#EEEEF1"/>
<path d="M187.984 71.4033C187.947 71.4034 187.91 71.389 187.883 71.3633C187.856 71.3375 187.84 71.3022 187.838 71.2648V66.3535C187.838 66.3147 187.853 66.2775 187.881 66.2501C187.908 66.2227 187.945 66.2072 187.984 66.2072C188.023 66.2072 188.06 66.2227 188.087 66.2501C188.115 66.2775 188.13 66.3147 188.13 66.3535V71.2648C188.128 71.3022 188.112 71.3375 188.085 71.3633C188.058 71.389 188.022 71.4034 187.984 71.4033Z" fill="#EEEEF1"/>
<path d="M187.591 67.4697H187.538C187.52 67.4622 187.504 67.4512 187.49 67.4374C187.477 67.4237 187.466 67.4074 187.459 67.3895C187.452 67.3716 187.448 67.3525 187.449 67.3332C187.449 67.314 187.453 67.295 187.461 67.2773L187.976 66.0918L188.546 66.7538C188.558 66.768 188.567 66.7844 188.573 66.8021C188.579 66.8198 188.581 66.8385 188.58 66.8571C188.578 66.8757 188.573 66.8938 188.565 66.9104C188.556 66.927 188.545 66.9418 188.531 66.954C188.516 66.9661 188.5 66.9753 188.482 66.9811C188.465 66.9869 188.446 66.9891 188.427 66.9877C188.409 66.9863 188.391 66.9812 188.374 66.9728C188.357 66.9643 188.343 66.9527 188.33 66.9386L188.053 66.6306L187.722 67.4004C187.709 67.4232 187.69 67.4418 187.667 67.454C187.644 67.4663 187.618 67.4717 187.591 67.4697Z" fill="#EEEEF1"/>
<path d="M189.347 70.6489C189.309 70.647 189.274 70.6307 189.248 70.6035C189.222 70.5762 189.208 70.5402 189.208 70.5027V65.5914C189.203 65.5699 189.203 65.5476 189.208 65.5261C189.213 65.5046 189.222 65.4845 189.236 65.4672C189.25 65.4499 189.267 65.436 189.287 65.4264C189.307 65.4168 189.328 65.4118 189.35 65.4118C189.372 65.4118 189.394 65.4168 189.414 65.4264C189.434 65.436 189.451 65.4499 189.465 65.4672C189.479 65.4845 189.488 65.5046 189.493 65.5261C189.498 65.5476 189.498 65.5699 189.493 65.5914V70.5027C189.493 70.5415 189.477 70.5787 189.45 70.6061C189.423 70.6335 189.385 70.6489 189.347 70.6489Z" fill="#EEEEF1"/>
<path d="M188.923 66.7076H188.869C188.852 66.7001 188.836 66.6891 188.822 66.6753C188.809 66.6615 188.798 66.6453 188.791 66.6274C188.784 66.6095 188.78 66.5904 188.78 66.5711C188.781 66.5519 188.785 66.5329 188.792 66.5152L189.308 65.3297L189.878 65.9917C189.903 66.0188 189.917 66.0546 189.917 66.0918C189.917 66.129 189.903 66.1647 189.878 66.1918C189.849 66.2178 189.812 66.2322 189.774 66.2322C189.735 66.2322 189.698 66.2178 189.67 66.1918L189.4 65.8762L189.069 66.646C189.054 66.6693 189.031 66.6875 189.005 66.6984C188.979 66.7093 188.951 66.7125 188.923 66.7076Z" fill="#EEEEF1"/>
<path d="M173.758 82.5576L154.998 71.7266L155.006 50.057L173.758 60.8879V82.5576Z" fill="#CFCFCF"/>
<path d="M165.398 56.0614L184.143 45.2227L182.026 43.9987L163.274 54.8374L165.398 56.0614Z" fill="#EEEEF1"/>
<path d="M157.847 62.4814L164.567 66.3304C164.953 66.585 165.275 66.9264 165.506 67.3273C165.738 67.7283 165.872 68.1777 165.899 68.6397V72.7812C165.899 73.6357 165.298 73.9821 164.567 73.551L157.847 69.702C157.46 69.4479 157.138 69.1066 156.907 68.7055C156.675 68.3045 156.541 67.8549 156.515 67.3927V63.2512C156.515 62.3967 157.115 62.058 157.847 62.4814Z" fill="#3E4095"/>
<path d="M157.331 63.513L157.585 63.6669V68.2626L157.331 68.1163V63.513Z" fill="#3E4095"/>
<path d="M158.37 64.1134L158.809 64.3751V68.9708L158.37 68.7168V64.1134Z" fill="#3E4095"/>
<path d="M159.409 64.7138L159.663 64.8601V69.4634L159.409 69.3172V64.7138Z" fill="#3E4095"/>
<path d="M160.187 65.1603L160.703 65.4605V70.0639L160.187 69.756V65.1603Z" fill="#3E4095"/>
<path d="M161.48 65.9147L161.742 66.0609V70.6643L161.48 70.5103V65.9147Z" fill="#3E4095"/>
<path d="M162.235 66.3381L162.773 66.6614V71.257L162.227 70.9337L162.235 66.3381Z" fill="#3E4095"/>
<path d="M163.559 67.1156L163.813 67.2619V71.8575L163.559 71.7113V67.1156Z" fill="#3E4095"/>
<path d="M164.151 67.4466L164.282 67.5236V72.1192L164.151 72.0499V67.4466Z" fill="#3E4095"/>
<path d="M163.089 66.8615L163.212 66.9385V71.5342L163.089 71.4649V66.8615Z" fill="#3E4095"/>
<path d="M160.995 65.6376L161.118 65.7069V70.3102L160.995 70.2332V65.6376Z" fill="#3E4095"/>
<path d="M159.848 64.9756L159.979 65.0525V69.6559L159.848 69.5789V64.9756Z" fill="#3E4095"/>
<path d="M159.024 64.5214L159.155 64.5984V69.2017L159.024 69.1248V64.5214Z" fill="#3E4095"/>
<path d="M157.908 63.844L158.039 63.921V68.5244L157.908 68.4474V63.844Z" fill="#3E4095"/>
<path d="M164.598 67.7083L164.852 67.8546V72.4579L164.598 72.3117V67.7083Z" fill="#3E4095"/>
<path d="M167.508 46.4467L145.615 33.8144L123.73 46.4467L145.615 59.0867L167.508 46.4467Z" fill="#C9C9C9"/>
<path d="M136.231 53.6673L158.124 41.0351L155.999 39.8111L134.114 52.4434L136.231 53.6673Z" fill="#EEEEF1"/>
<path d="M145.615 98.8002L167.508 86.1679V46.4467L145.615 59.0867V98.8002Z" fill="#EBEBEB"/>
<path d="M149.233 91.6489C149.132 91.6506 149.034 91.6239 148.948 91.5719C148.826 91.486 148.73 91.3696 148.668 91.2345C148.605 91.0993 148.58 90.9502 148.594 90.8021V88.4927V88.3233H148.717L150.511 87.2687V89.8321C150.507 90.162 150.425 90.4863 150.271 90.7781C150.117 91.0699 149.895 91.3209 149.625 91.5103C149.51 91.5917 149.374 91.6396 149.233 91.6489ZM148.886 88.6698V90.7944C148.873 90.8933 148.886 90.9938 148.922 91.0866C148.958 91.1794 149.018 91.2616 149.094 91.3255C149.156 91.3534 149.225 91.3638 149.293 91.3557C149.361 91.3475 149.425 91.3212 149.479 91.2794C149.71 91.1185 149.899 90.9059 150.033 90.6586C150.167 90.4114 150.241 90.1362 150.249 89.8552V89.6705H149.579L149.448 88.7698L148.886 88.6698ZM149.81 89.378H150.264V87.7999L149.187 88.4311L149.718 88.5235L149.81 89.378Z" fill="#EEEEF1"/>
<path d="M149.556 93.4502C149.517 93.4502 149.48 93.4348 149.453 93.4073C149.425 93.3799 149.41 93.3427 149.41 93.3039V91.3717C149.41 91.3529 149.414 91.3342 149.421 91.3169C149.428 91.2995 149.439 91.2839 149.453 91.2709C149.467 91.258 149.483 91.2479 149.501 91.2414C149.518 91.2349 149.537 91.2321 149.556 91.2332C149.594 91.2331 149.63 91.2475 149.657 91.2733C149.684 91.299 149.7 91.3343 149.702 91.3717V93.3039C149.7 93.3421 149.684 93.3782 149.657 93.4053C149.63 93.4323 149.594 93.4483 149.556 93.4502Z" fill="#EEEEF1"/>
<path d="M148.725 93.9583C148.7 93.9588 148.675 93.9527 148.654 93.9405C148.632 93.9283 148.614 93.9105 148.602 93.889C148.584 93.8549 148.58 93.8155 148.59 93.7785C148.6 93.7415 148.623 93.7095 148.655 93.6888L150.326 92.7266C150.343 92.7169 150.361 92.7107 150.38 92.7082C150.399 92.7057 150.419 92.707 150.437 92.712C150.456 92.717 150.473 92.7256 150.488 92.7374C150.504 92.7491 150.516 92.7638 150.526 92.7805C150.536 92.7966 150.542 92.8144 150.544 92.8329C150.546 92.8514 150.545 92.8702 150.54 92.8882C150.535 92.9062 150.526 92.9229 150.515 92.9375C150.503 92.9521 150.489 92.9641 150.472 92.9729L148.794 93.9429C148.773 93.9551 148.749 93.9605 148.725 93.9583Z" fill="#EEEEF1"/>
<path d="M154.691 90.6096C154.634 90.6098 154.579 90.5966 154.529 90.5712C154.473 90.5334 154.427 90.4815 154.398 90.4207C154.368 90.3599 154.355 90.2923 154.36 90.2247V89.8245C154.36 89.8056 154.363 89.7869 154.371 89.7696C154.378 89.7523 154.389 89.7366 154.403 89.7237C154.417 89.7107 154.433 89.7006 154.45 89.6941C154.468 89.6877 154.487 89.6848 154.506 89.6859C154.524 89.6859 154.542 89.6895 154.559 89.6964C154.576 89.7034 154.591 89.7136 154.604 89.7265C154.617 89.7393 154.627 89.7546 154.634 89.7714C154.641 89.7882 154.644 89.8063 154.644 89.8245V90.2247C154.644 90.2786 154.644 90.3094 154.644 90.3171C154.644 90.3248 154.691 90.3171 154.737 90.3171C154.827 90.2343 154.897 90.1328 154.944 90.0197C154.99 89.9067 155.012 89.7849 155.006 89.6628V87.0994C155.006 87.0606 155.022 87.0234 155.049 86.996C155.076 86.9685 155.114 86.9531 155.152 86.9531C155.191 86.955 155.227 86.971 155.254 86.998C155.281 87.0251 155.297 87.0612 155.299 87.0994V89.6628C155.306 89.8351 155.272 90.0068 155.2 90.1634C155.127 90.32 155.019 90.4572 154.883 90.5634C154.823 90.5933 154.757 90.6091 154.691 90.6096Z" fill="#EEEEF1"/>
<path d="M153.166 88.3696V88.1155C153.203 87.4756 153.389 86.8532 153.71 86.2983C154.031 85.7435 154.477 85.2717 155.014 84.9209C155.206 84.7592 155.443 84.6605 155.693 84.6383C155.944 84.616 156.195 84.6713 156.412 84.7965C156.63 84.9218 156.804 85.1109 156.91 85.3384C157.017 85.5658 157.051 85.8205 157.008 86.0679V86.1526L153.166 88.3696ZM155.876 84.944C155.622 84.9556 155.376 85.0325 155.16 85.1672C154.702 85.4696 154.314 85.8665 154.022 86.3311C153.73 86.7958 153.54 87.3176 153.467 87.8615L156.715 85.9909C156.727 85.8082 156.692 85.6256 156.614 85.4601C156.536 85.2946 156.417 85.1514 156.269 85.0441C156.148 84.9785 156.013 84.9441 155.876 84.944Z" fill="#EEEEF1"/>
<path d="M159.871 87.6536C159.832 87.6536 159.795 87.6382 159.768 87.6108C159.74 87.5833 159.725 87.5461 159.725 87.5074V82.5961C159.725 82.5573 159.74 82.5201 159.768 82.4927C159.795 82.4652 159.832 82.4498 159.871 82.4498C159.91 82.4498 159.947 82.4652 159.975 82.4927C160.002 82.5201 160.018 82.5573 160.018 82.5961V87.5074C160.018 87.5461 160.002 87.5833 159.975 87.6108C159.947 87.6382 159.91 87.6536 159.871 87.6536Z" fill="#EEEEF1"/>
<path d="M159.448 83.7201H159.394C159.376 83.7133 159.361 83.7031 159.347 83.6901C159.334 83.677 159.323 83.6614 159.316 83.6441C159.309 83.6269 159.305 83.6083 159.305 83.5896C159.306 83.5709 159.309 83.5524 159.317 83.5353L159.833 82.3498L160.402 83.0118C160.427 83.0404 160.439 83.0776 160.436 83.1151C160.433 83.1526 160.416 83.1875 160.387 83.212C160.358 83.2365 160.321 83.2486 160.284 83.2457C160.246 83.2429 160.211 83.2252 160.187 83.1966L159.91 82.881L159.579 83.6508C159.566 83.6735 159.546 83.6921 159.523 83.7044C159.5 83.7166 159.474 83.7221 159.448 83.7201Z" fill="#EEEEF1"/>
<path d="M161.203 86.8915C161.166 86.8915 161.131 86.8769 161.105 86.8509C161.079 86.8249 161.064 86.7897 161.064 86.7529V81.8417C161.063 81.8228 161.066 81.804 161.073 81.7863C161.079 81.7686 161.089 81.7524 161.102 81.7387C161.115 81.725 161.131 81.7141 161.148 81.7066C161.165 81.6992 161.184 81.6954 161.203 81.6954C161.222 81.6943 161.242 81.6973 161.26 81.7043C161.279 81.7112 161.295 81.722 161.309 81.7358C161.323 81.7496 161.333 81.7662 161.34 81.7844C161.347 81.8027 161.35 81.8222 161.349 81.8417V86.7529C161.349 86.7718 161.345 86.7905 161.338 86.8078C161.331 86.8251 161.32 86.8408 161.306 86.8537C161.292 86.8667 161.276 86.8768 161.258 86.8833C161.241 86.8897 161.222 86.8926 161.203 86.8915Z" fill="#EEEEF1"/>
<path d="M160.787 82.9579H160.726C160.691 82.9412 160.664 82.9122 160.65 82.8766C160.636 82.841 160.635 82.8014 160.649 82.7655L161.164 81.58L161.742 82.242C161.766 82.2699 161.779 82.3054 161.779 82.3421C161.779 82.3788 161.766 82.4143 161.742 82.4421C161.728 82.4559 161.712 82.4668 161.694 82.4742C161.676 82.4817 161.657 82.4855 161.638 82.4855C161.619 82.4855 161.599 82.4817 161.582 82.4742C161.564 82.4668 161.548 82.4559 161.534 82.4421L161.265 82.1265L160.934 82.8963C160.918 82.9203 160.896 82.9391 160.87 82.9501C160.844 82.9611 160.815 82.9639 160.787 82.9579Z" fill="#EEEEF1"/>
<path d="M145.615 98.8002L123.73 86.1679V46.4467L145.615 59.0867V98.8002Z" fill="#CFCFCF"/>
<path d="M128.179 77.908L134.892 81.757C135.28 82.0103 135.603 82.3512 135.836 82.7523C136.069 83.1534 136.204 83.6035 136.231 84.0664V88.2155C136.231 89.0623 135.631 89.4087 134.892 88.9853L128.179 85.1364C127.791 84.8836 127.468 84.5426 127.236 84.1413C127.005 83.74 126.872 83.2896 126.847 82.827V78.6855C126.847 77.7926 127.448 77.4847 128.179 77.908Z" fill="#C9C9C9"/>
<path d="M127.663 78.9396L127.917 79.0935V83.6892L127.663 83.5429V78.9396Z" fill="#CFCFCF"/>
<path d="M128.702 79.54L129.141 79.8018V84.4051L128.702 84.1434V79.54Z" fill="#CFCFCF"/>
<path d="M129.734 80.1405L129.996 80.2867L129.988 84.8901L129.734 84.7438V80.1405Z" fill="#CFCFCF"/>
<path d="M130.519 80.5869L131.027 80.8872V85.4905L130.519 85.1826V80.5869Z" fill="#CFCFCF"/>
<path d="M131.812 81.3413L132.066 81.4876V86.091L131.812 85.937V81.3413Z" fill="#CFCFCF"/>
<path d="M132.559 81.7647L133.106 82.088V86.6837L132.559 86.3604V81.7647Z" fill="#CFCFCF"/>
<path d="M133.891 82.5345L134.145 82.6885V87.2841L133.891 87.1379V82.5345Z" fill="#CFCFCF"/>
<path d="M134.484 82.8732L134.614 82.9502V87.5536L134.484 87.4766V82.8732Z" fill="#CFCFCF"/>
<path d="M133.421 82.2882L133.544 82.3652V86.9608L133.421 86.8915V82.2882Z" fill="#CFCFCF"/>
<path d="M131.327 81.0642L131.451 81.1335V85.7368L131.327 85.6599V81.0642Z" fill="#CFCFCF"/>
<path d="M130.18 80.4022L130.304 80.4791V85.0825L130.18 85.0055V80.4022Z" fill="#CFCFCF"/>
<path d="M129.357 79.948L129.488 80.025V84.6283L129.357 84.5513V79.948Z" fill="#CFCFCF"/>
<path d="M128.241 79.2706L128.371 79.3476V83.9509L128.241 83.8739V79.2706Z" fill="#CFCFCF"/>
<path d="M134.93 83.1349L135.184 83.2812V87.8846L134.93 87.7383V83.1349Z" fill="#CFCFCF"/>
<path d="M134.114 57.5702L136.231 58.7942V53.6674L134.114 52.4434V57.5702Z" fill="#F0F0F0"/>
<path d="M101.837 87.9692L86.2022 78.9473L64.317 91.5795L79.9515 100.609L101.837 87.9692Z" fill="#C9C9C9"/>
<path d="M79.9515 136.712L101.837 124.08V87.9693L79.9515 100.609V136.712Z" fill="#EBEBEB"/>
<path d="M83.5618 129.53C83.4639 129.532 83.3675 129.506 83.2847 129.453C83.1638 129.367 83.0676 129.25 83.0055 129.115C82.9434 128.98 82.9176 128.832 82.9306 128.683V126.374V126.205H83.0461L84.8474 125.15V127.714C84.8436 128.043 84.7613 128.368 84.6074 128.66C84.4535 128.951 84.2323 129.202 83.9621 129.392C83.8432 129.472 83.7051 129.52 83.5618 129.53ZM83.2231 126.551V128.676C83.2088 128.775 83.2204 128.876 83.2569 128.969C83.2933 129.062 83.3533 129.144 83.4309 129.207C83.4939 129.232 83.562 129.241 83.6292 129.232C83.6964 129.224 83.7605 129.2 83.8158 129.161C84.0464 129 84.2361 128.787 84.3697 128.54C84.5034 128.293 84.5773 128.018 84.5856 127.737V127.552H83.9159L83.7851 126.651L83.2231 126.551ZM84.1469 127.259H84.5625V125.674L83.4848 126.305L84.016 126.397L84.1469 127.259Z" fill="#EEEEF1"/>
<path d="M83.8928 131.362C83.854 131.362 83.8168 131.347 83.7894 131.32C83.762 131.292 83.7466 131.255 83.7466 131.216V129.284C83.7465 129.265 83.7504 129.246 83.7578 129.229C83.7652 129.212 83.7761 129.196 83.7898 129.183C83.8035 129.17 83.8197 129.16 83.8374 129.154C83.8551 129.147 83.874 129.144 83.8928 129.145C83.9296 129.145 83.9648 129.16 83.9908 129.186C84.0168 129.212 84.0314 129.247 84.0314 129.284V131.216C84.0314 131.254 84.0171 131.29 83.9913 131.317C83.9655 131.344 83.9303 131.36 83.8928 131.362Z" fill="#EEEEF1"/>
<path d="M83.0538 131.84C83.0288 131.841 83.0039 131.835 82.982 131.823C82.9602 131.811 82.9423 131.793 82.9306 131.77C82.9195 131.755 82.9119 131.736 82.9083 131.717C82.9046 131.698 82.905 131.679 82.9093 131.66C82.9137 131.641 82.9219 131.623 82.9335 131.608C82.9452 131.593 82.9599 131.58 82.9768 131.57L84.6549 130.608C84.6716 130.598 84.69 130.592 84.7091 130.59C84.7282 130.587 84.7476 130.588 84.7662 130.593C84.7848 130.598 84.8022 130.607 84.8175 130.619C84.8327 130.631 84.8455 130.645 84.8551 130.662C84.8646 130.678 84.8707 130.696 84.8731 130.714C84.8755 130.733 84.8742 130.752 84.8691 130.77C84.8641 130.788 84.8555 130.804 84.8438 130.819C84.8321 130.833 84.8176 130.846 84.8012 130.854L83.123 131.824C83.1021 131.837 83.0779 131.842 83.0538 131.84Z" fill="#EEEEF1"/>
<path d="M89.0273 128.522C88.9712 128.522 88.9158 128.509 88.8657 128.483C88.8095 128.446 88.7642 128.394 88.7345 128.333C88.7048 128.272 88.6916 128.205 88.6963 128.137V127.737C88.6963 127.7 88.7109 127.665 88.7369 127.639C88.7629 127.613 88.7982 127.598 88.8349 127.598C88.8537 127.597 88.8726 127.6 88.8903 127.606C88.908 127.613 88.9242 127.623 88.9379 127.636C88.9516 127.649 88.9625 127.664 88.9699 127.682C88.9774 127.699 88.9812 127.718 88.9812 127.737V128.137C88.9812 128.191 88.9812 128.222 88.9812 128.229C88.9812 128.237 89.0273 128.229 89.0735 128.229C89.1618 128.145 89.2314 128.044 89.2778 127.931C89.3242 127.818 89.3464 127.697 89.343 127.575V125.012C89.3379 124.99 89.3378 124.968 89.3426 124.946C89.3475 124.925 89.3571 124.905 89.3708 124.887C89.3845 124.87 89.4019 124.856 89.4217 124.847C89.4416 124.837 89.4633 124.832 89.4854 124.832C89.5074 124.832 89.5292 124.837 89.549 124.847C89.5689 124.856 89.5863 124.87 89.6 124.887C89.6137 124.905 89.6233 124.925 89.6281 124.946C89.6329 124.968 89.6328 124.99 89.6278 125.012V127.575C89.6341 127.746 89.6006 127.917 89.5298 128.073C89.459 128.23 89.3529 128.367 89.2198 128.476C89.16 128.506 89.0942 128.521 89.0273 128.522Z" fill="#EEEEF1"/>
<path d="M87.5031 126.289V126.035C87.5396 125.396 87.7258 124.773 88.0467 124.218C88.3675 123.663 88.8142 123.192 89.3506 122.841C89.5418 122.677 89.779 122.577 90.0295 122.554C90.2799 122.531 90.5314 122.586 90.7492 122.712C90.967 122.838 91.1405 123.028 91.2457 123.257C91.3509 123.485 91.3827 123.74 91.3367 123.988V124.072L87.5031 126.289ZM90.2128 122.864C89.959 122.876 89.7124 122.952 89.4969 123.087C89.0388 123.39 88.6507 123.786 88.3586 124.251C88.0666 124.716 87.8772 125.238 87.8034 125.781L91.0519 123.903C91.0627 123.722 91.0275 123.54 90.9494 123.376C90.8713 123.212 90.753 123.07 90.6054 122.964C90.4879 122.897 90.3557 122.86 90.2205 122.856L90.2128 122.864Z" fill="#EEEEF1"/>
<path d="M94.208 125.566C94.1692 125.566 94.132 125.55 94.1046 125.523C94.0772 125.496 94.0618 125.458 94.0618 125.42V120.508C94.0618 120.47 94.0772 120.432 94.1046 120.405C94.132 120.377 94.1692 120.362 94.208 120.362C94.2468 120.362 94.284 120.377 94.3114 120.405C94.3389 120.432 94.3543 120.47 94.3543 120.508V125.42C94.3543 125.458 94.3389 125.496 94.3114 125.523C94.284 125.55 94.2468 125.566 94.208 125.566Z" fill="#EEEEF1"/>
<path d="M93.7846 121.671H93.7307C93.7133 121.664 93.6974 121.654 93.684 121.641C93.6706 121.628 93.66 121.612 93.6528 121.595C93.6456 121.578 93.642 121.559 93.6422 121.54C93.6423 121.522 93.6463 121.503 93.6538 121.486L94.1695 120.3L94.7392 120.962C94.7637 120.991 94.7758 121.028 94.7729 121.066C94.77 121.103 94.7524 121.138 94.7238 121.163C94.7096 121.175 94.6932 121.184 94.6755 121.19C94.6578 121.196 94.6391 121.198 94.6205 121.196C94.583 121.194 94.5481 121.176 94.5236 121.147L94.2465 120.832L93.9155 121.601C93.9025 121.624 93.8832 121.643 93.8601 121.655C93.8369 121.667 93.8108 121.673 93.7846 121.671Z" fill="#EEEEF1"/>
<path d="M95.5398 124.804C95.5023 124.804 95.4662 124.789 95.439 124.764C95.4118 124.738 95.3955 124.703 95.3935 124.665V119.754C95.3935 119.715 95.4089 119.678 95.4364 119.651C95.4638 119.623 95.501 119.608 95.5398 119.608C95.5593 119.607 95.5788 119.61 95.597 119.617C95.6153 119.623 95.6319 119.634 95.6457 119.648C95.6595 119.662 95.6702 119.678 95.6772 119.697C95.6841 119.715 95.6872 119.734 95.686 119.754V124.665C95.6861 124.684 95.6822 124.703 95.6748 124.72C95.6674 124.737 95.6565 124.753 95.6428 124.766C95.6291 124.779 95.6129 124.789 95.5952 124.796C95.5775 124.802 95.5586 124.805 95.5398 124.804Z" fill="#EEEEF1"/>
<path d="M95.1164 120.901C95.099 120.907 95.0799 120.907 95.0625 120.901C95.0451 120.894 95.0292 120.884 95.0158 120.871C95.0024 120.858 94.9918 120.842 94.9846 120.825C94.9774 120.808 94.9738 120.789 94.9739 120.77C94.9741 120.752 94.9781 120.733 94.9855 120.716L95.5013 119.531L96.071 120.193C96.0964 120.22 96.1106 120.256 96.1106 120.293C96.1106 120.33 96.0964 120.366 96.071 120.393C96.0574 120.407 96.0412 120.417 96.0233 120.425C96.0055 120.432 95.9864 120.436 95.967 120.436C95.9477 120.436 95.9286 120.432 95.9107 120.425C95.8929 120.417 95.8767 120.407 95.8631 120.393L95.5937 120.077L95.2627 120.847C95.2459 120.869 95.2232 120.886 95.1973 120.895C95.1714 120.905 95.1434 120.907 95.1164 120.901Z" fill="#EEEEF1"/>
<path d="M79.9515 136.712L64.317 127.69V91.5796L79.9515 100.609V136.712Z" fill="#CFCFCF"/>
<path d="M71.5762 100.902L73.6931 102.126V96.9989L71.5762 95.7749V100.902Z" fill="#C9C9C9"/>
<path d="M73.6931 96.9989L95.586 84.3589L93.4613 83.1349L71.5762 95.7749L73.6931 96.9989Z" fill="#EEEEF1"/>
<path d="M73.6931 118.661L45.5572 102.418L17.4136 118.661L45.5572 134.911L73.6931 118.661Z" fill="#C9C9C9"/>
<path d="M45.5572 156.573L73.6931 140.33V118.661L45.5572 134.911V156.573Z" fill="#EBEBEB"/>
<path d="M49.1675 149.383C49.0701 149.381 48.9748 149.355 48.8904 149.306C48.7701 149.219 48.6743 149.103 48.6123 148.968C48.5502 148.833 48.5241 148.684 48.5363 148.536V146.227V146.058H48.6518L50.4531 144.995V147.567C50.4481 147.895 50.3652 148.218 50.2114 148.508C50.0575 148.799 49.8369 149.048 49.5678 149.237C49.4494 149.32 49.3114 149.37 49.1675 149.383ZM48.8211 146.404V148.529C48.8074 148.627 48.8194 148.726 48.8558 148.818C48.8923 148.91 48.9519 148.99 49.029 149.052C49.092 149.081 49.1615 149.093 49.2304 149.086C49.2994 149.079 49.3653 149.054 49.4216 149.014C49.6512 148.852 49.8403 148.639 49.9738 148.392C50.1074 148.145 50.1819 147.87 50.1913 147.59V147.397H49.4985L49.3677 146.497L48.8211 146.404ZM49.7449 147.112H50.1913V145.534L49.1213 146.166L49.6525 146.258L49.7449 147.112Z" fill="#EEEEF1"/>
<path d="M49.4909 151.215C49.4727 151.215 49.4546 151.212 49.4378 151.205C49.421 151.198 49.4057 151.188 49.3929 151.175C49.38 151.162 49.3698 151.147 49.3628 151.13C49.3559 151.113 49.3523 151.095 49.3523 151.077V149.145C49.3473 149.123 49.3472 149.101 49.352 149.079C49.3568 149.058 49.3664 149.038 49.3801 149.02C49.3938 149.003 49.4112 148.989 49.4311 148.98C49.4509 148.97 49.4727 148.965 49.4947 148.965C49.5168 148.965 49.5385 148.97 49.5583 148.98C49.5782 148.989 49.5956 149.003 49.6093 149.02C49.623 149.038 49.6326 149.058 49.6374 149.079C49.6423 149.101 49.6421 149.123 49.6371 149.145V151.077C49.6371 151.096 49.6333 151.114 49.6259 151.132C49.6184 151.149 49.6075 151.165 49.5939 151.178C49.5802 151.191 49.564 151.201 49.5463 151.207C49.5285 151.214 49.5097 151.216 49.4909 151.215Z" fill="#EEEEF1"/>
<path d="M48.6518 151.693C48.6209 151.691 48.5915 151.679 48.5677 151.659C48.5439 151.64 48.5269 151.613 48.5193 151.583C48.5116 151.553 48.5135 151.522 48.5249 151.493C48.5363 151.464 48.5564 151.44 48.5825 151.423L50.2606 150.461C50.2759 150.45 50.2933 150.442 50.3117 150.439C50.3302 150.435 50.3491 150.436 50.3674 150.44C50.3857 150.444 50.4028 150.453 50.4175 150.464C50.4323 150.476 50.4444 150.49 50.4531 150.507C50.4641 150.523 50.4717 150.541 50.4754 150.56C50.4791 150.579 50.4787 150.599 50.4744 150.617C50.47 150.636 50.4618 150.654 50.4501 150.669C50.4385 150.685 50.4238 150.698 50.4069 150.707L48.7287 151.693H48.6518Z" fill="#EEEEF1"/>
<path d="M54.6254 148.383C54.5747 148.394 54.5221 148.394 54.4714 148.383C54.4126 148.345 54.3651 148.292 54.3339 148.23C54.3027 148.168 54.289 148.098 54.2944 148.028V147.636C54.2944 147.597 54.3098 147.56 54.3372 147.532C54.3646 147.505 54.4018 147.49 54.4406 147.49C54.4794 147.49 54.5166 147.505 54.5441 147.532C54.5715 147.56 54.5869 147.597 54.5869 147.636V148.028C54.5763 148.061 54.5763 148.096 54.5869 148.128C54.5869 148.128 54.6331 148.128 54.687 148.128C54.7738 148.044 54.842 147.942 54.8871 147.829C54.9321 147.716 54.9531 147.595 54.9487 147.474V144.911C54.9506 144.873 54.9666 144.836 54.9936 144.809C55.0206 144.782 55.0568 144.766 55.095 144.764C55.1337 144.764 55.1709 144.78 55.1984 144.807C55.2258 144.835 55.2412 144.872 55.2412 144.911V147.474C55.2475 147.646 55.214 147.816 55.1432 147.973C55.0724 148.129 54.9663 148.267 54.8332 148.375C54.7655 148.394 54.6943 148.396 54.6254 148.383Z" fill="#EEEEF1"/>
<path d="M53.1089 146.142V145.888C53.1423 145.248 53.3272 144.624 53.6483 144.069C53.9695 143.513 54.4178 143.042 54.9564 142.694C55.1476 142.53 55.3847 142.43 55.6352 142.407C55.8857 142.384 56.1371 142.439 56.355 142.565C56.5728 142.691 56.7462 142.881 56.8515 143.109C56.9567 143.338 56.9885 143.593 56.9424 143.841V143.925L53.1089 146.142ZM55.8186 142.717C55.5625 142.73 55.3138 142.807 55.095 142.94C54.6383 143.243 54.2517 143.64 53.9609 144.105C53.6702 144.57 53.4821 145.091 53.4091 145.634L56.6499 143.756C56.6624 143.575 56.6286 143.394 56.5519 143.23C56.4751 143.065 56.3579 142.923 56.2111 142.817C56.0916 142.749 55.956 142.715 55.8186 142.717Z" fill="#EEEEF1"/>
<path d="M59.8138 145.427C59.7943 145.428 59.7748 145.425 59.7565 145.418C59.7383 145.411 59.7217 145.4 59.7079 145.386C59.6941 145.372 59.6833 145.356 59.6764 145.338C59.6694 145.319 59.6664 145.3 59.6675 145.28V140.369C59.6625 140.348 59.6624 140.325 59.6672 140.304C59.672 140.282 59.6816 140.262 59.6953 140.245C59.709 140.228 59.7264 140.214 59.7463 140.204C59.7661 140.194 59.7879 140.189 59.8099 140.189C59.832 140.189 59.8537 140.194 59.8736 140.204C59.8934 140.214 59.9108 140.228 59.9245 140.245C59.9382 140.262 59.9478 140.282 59.9527 140.304C59.9575 140.325 59.9574 140.348 59.9523 140.369V145.28C59.9534 145.299 59.9506 145.318 59.9441 145.336C59.9376 145.353 59.9276 145.37 59.9146 145.383C59.9016 145.397 59.886 145.408 59.8686 145.415C59.8513 145.423 59.8326 145.427 59.8138 145.427Z" fill="#EEEEF1"/>
<path d="M59.4289 141.493H59.3673C59.3495 141.485 59.3335 141.474 59.3202 141.46C59.307 141.447 59.2967 141.43 59.2902 141.412C59.2837 141.394 59.281 141.374 59.2824 141.355C59.2837 141.336 59.289 141.317 59.298 141.3L59.8061 140.115L60.3834 140.777C60.4089 140.807 60.4216 140.845 60.4188 140.884C60.4159 140.923 60.3976 140.959 60.368 140.985C60.3384 141.01 60.2999 141.023 60.2609 141.02C60.2219 141.017 60.1857 140.999 60.1602 140.969L59.8907 140.654L59.5597 141.424C59.5461 141.446 59.5267 141.464 59.5037 141.476C59.4807 141.488 59.4549 141.494 59.4289 141.493Z" fill="#EEEEF1"/>
<path d="M61.1455 144.664C61.1067 144.664 61.0695 144.649 61.0421 144.622C61.0147 144.594 60.9993 144.557 60.9993 144.518V139.607C60.9993 139.568 61.0147 139.531 61.0421 139.503C61.0695 139.476 61.1067 139.461 61.1455 139.461C61.1843 139.461 61.2215 139.476 61.2489 139.503C61.2764 139.531 61.2918 139.568 61.2918 139.607V144.518C61.2918 144.557 61.2764 144.594 61.2489 144.622C61.2215 144.649 61.1843 144.664 61.1455 144.664Z" fill="#EEEEF1"/>
<path d="M60.7221 140.731H60.6682C60.6508 140.724 60.6349 140.714 60.6215 140.701C60.6081 140.688 60.5975 140.672 60.5903 140.655C60.5831 140.638 60.5795 140.619 60.5796 140.6C60.5798 140.582 60.5837 140.563 60.5912 140.546L61.107 139.353L61.6766 140.015C61.6904 140.028 61.7013 140.045 61.7087 140.062C61.7161 140.08 61.72 140.099 61.72 140.119C61.72 140.138 61.7161 140.157 61.7087 140.175C61.7013 140.193 61.6904 140.209 61.6766 140.223C61.6637 140.236 61.6482 140.247 61.631 140.254C61.6138 140.262 61.5953 140.265 61.5766 140.265C61.5579 140.265 61.5394 140.262 61.5222 140.254C61.505 140.247 61.4894 140.236 61.4765 140.223L61.1994 139.907L60.8684 140.677C60.8522 140.699 60.8296 140.717 60.8035 140.726C60.7774 140.736 60.7491 140.737 60.7221 140.731Z" fill="#EEEEF1"/>
<path d="M45.5572 156.573L17.4136 140.33V118.661L45.5572 134.911V156.573Z" fill="#CFCFCF"/>
<path d="M30.4231 131.301L32.5401 132.525V127.398L30.4231 126.174V131.301Z" fill="#C9C9C9"/>
<path d="M32.5401 127.398L60.6836 111.155L58.5667 109.924L30.4231 126.174L32.5401 127.398Z" fill="#EEEEF1"/>
<path d="M21.8707 132.071L28.5833 135.92C28.9717 136.173 29.2952 136.514 29.5278 136.915C29.7604 137.316 29.8957 137.766 29.9228 138.229V142.378C29.9228 143.225 29.3223 143.571 28.5833 143.148L21.8707 139.299C21.4825 139.046 21.1596 138.705 20.9281 138.304C20.6967 137.903 20.5634 137.452 20.539 136.99V132.848C20.539 131.986 21.1394 131.678 21.8707 132.071Z" fill="#C9C9C9"/>
<path d="M21.355 133.102L21.609 133.248V137.852L21.355 137.705V133.102Z" fill="#CFCFCF"/>
<path d="M22.3865 133.703L22.833 133.964V138.56L22.3865 138.306V133.703Z" fill="#CFCFCF"/>
<path d="M23.4257 134.303L23.6874 134.449L23.6798 139.053L23.4257 138.906V134.303Z" fill="#CFCFCF"/>
<path d="M24.2109 134.749L24.7267 135.05L24.719 139.653L24.2109 139.345V134.749Z" fill="#CFCFCF"/>
<path d="M25.5042 135.504L25.7582 135.65V140.254L25.5042 140.1V135.504Z" fill="#CFCFCF"/>
<path d="M26.2509 135.927L26.7974 136.251V140.846L26.2509 140.523V135.927Z" fill="#CFCFCF"/>
<path d="M27.5826 136.705L27.8366 136.851V141.447L27.5826 141.3V136.705Z" fill="#CFCFCF"/>
<path d="M28.1753 137.036L28.3062 137.113V141.708L28.1753 141.639V137.036Z" fill="#CFCFCF"/>
<path d="M27.113 136.451L27.2362 136.52V141.123L27.113 141.054V136.451Z" fill="#CFCFCF"/>
<path d="M25.0192 135.227L25.1424 135.296V139.899L25.0192 139.822V135.227Z" fill="#CFCFCF"/>
<path d="M23.8722 134.565L24.0031 134.642V139.237L23.8722 139.168V134.565Z" fill="#CFCFCF"/>
<path d="M23.0485 134.111L23.1794 134.188V138.791L23.0485 138.714V134.111Z" fill="#CFCFCF"/>
<path d="M21.9323 133.433L22.0632 133.51V138.106L21.9323 138.036V133.433Z" fill="#CFCFCF"/>
<path d="M28.6218 137.298L28.8758 137.451V142.047L28.6218 141.901V137.298Z" fill="#CFCFCF"/>
<path d="M67.4424 75.337L45.5572 62.697L23.6644 75.337L45.5572 87.9693L67.4424 75.337Z" fill="#C9C9C9"/>
<path d="M45.5572 131.301L67.4424 118.661V75.3369L45.5572 87.9692V131.301Z" fill="#EBEBEB"/>
<path d="M49.1675 124.111C49.0708 124.112 48.9754 124.088 48.8904 124.042C48.7701 123.955 48.6743 123.838 48.6123 123.703C48.5502 123.568 48.5241 123.42 48.5363 123.272V120.962V120.793H48.6518L50.4531 119.739V122.302C50.4487 122.632 50.3661 122.956 50.2123 123.247C50.0584 123.539 49.8375 123.79 49.5678 123.98C49.4481 124.058 49.3101 124.103 49.1675 124.111ZM48.8211 121.132V123.264C48.8089 123.362 48.8216 123.461 48.8579 123.553C48.8942 123.644 48.9531 123.725 49.029 123.788C49.092 123.816 49.1615 123.828 49.2304 123.821C49.2994 123.815 49.3653 123.79 49.4216 123.749C49.6514 123.586 49.8404 123.372 49.9739 123.123C50.1075 122.875 50.1819 122.599 50.1913 122.317V122.133H49.4985L49.3677 121.232L48.8211 121.132ZM49.7449 121.84H50.1913V120.262L49.1213 120.893L49.6525 120.986L49.7449 121.84Z" fill="#EEEEF1"/>
<path d="M49.4909 125.943C49.472 125.943 49.4533 125.939 49.436 125.932C49.4187 125.924 49.403 125.914 49.3901 125.9C49.3771 125.886 49.367 125.87 49.3605 125.852C49.3541 125.835 49.3512 125.816 49.3523 125.797V123.872C49.3512 123.854 49.3541 123.835 49.3605 123.817C49.367 123.799 49.3771 123.783 49.3901 123.769C49.403 123.756 49.4187 123.745 49.436 123.737C49.4533 123.73 49.472 123.726 49.4909 123.726C49.5104 123.725 49.5299 123.728 49.5481 123.735C49.5664 123.742 49.5829 123.753 49.5968 123.766C49.6106 123.78 49.6213 123.797 49.6283 123.815C49.6352 123.833 49.6382 123.853 49.6371 123.872V125.797C49.6382 125.816 49.6352 125.836 49.6283 125.854C49.6213 125.872 49.6106 125.889 49.5968 125.903C49.5829 125.917 49.5664 125.927 49.5481 125.934C49.5299 125.941 49.5104 125.944 49.4909 125.943Z" fill="#EEEEF1"/>
<path d="M48.6518 126.428C48.6209 126.426 48.5915 126.414 48.5677 126.395C48.5439 126.375 48.5269 126.348 48.5193 126.318C48.5116 126.289 48.5135 126.257 48.5249 126.228C48.5363 126.2 48.5564 126.175 48.5825 126.159L50.2606 125.189C50.2943 125.169 50.3343 125.164 50.3719 125.174C50.4094 125.184 50.4414 125.209 50.4608 125.243C50.4802 125.276 50.4854 125.316 50.4753 125.354C50.4652 125.391 50.4406 125.423 50.4069 125.443L48.7287 126.405C48.7061 126.42 48.6792 126.429 48.6518 126.428Z" fill="#EEEEF1"/>
<path d="M54.6253 123.11C54.5706 123.11 54.517 123.094 54.4714 123.064C54.4126 123.028 54.3649 122.977 54.3336 122.916C54.3023 122.855 54.2887 122.786 54.2943 122.718V122.325C54.2943 122.286 54.3097 122.249 54.3372 122.222C54.3646 122.194 54.4018 122.179 54.4406 122.179C54.4794 122.179 54.5166 122.194 54.544 122.222C54.5714 122.249 54.5868 122.286 54.5868 122.325V122.718C54.5763 122.75 54.5763 122.785 54.5868 122.818C54.6196 122.827 54.6542 122.827 54.6869 122.818C54.7748 122.735 54.8437 122.635 54.8889 122.523C54.9341 122.412 54.9545 122.291 54.9487 122.171V119.608C54.9487 119.569 54.9641 119.532 54.9915 119.504C55.0189 119.477 55.0561 119.461 55.0949 119.461C55.1144 119.46 55.1339 119.463 55.1522 119.47C55.1704 119.477 55.187 119.488 55.2008 119.502C55.2146 119.516 55.2254 119.532 55.2323 119.55C55.2393 119.569 55.2423 119.588 55.2412 119.608V122.171C55.2475 122.343 55.214 122.513 55.1432 122.669C55.0724 122.826 54.9663 122.963 54.8332 123.072C54.768 123.101 54.6967 123.114 54.6253 123.11Z" fill="#EEEEF1"/>
<path d="M53.1089 120.901V120.655C53.1436 120.013 53.3289 119.389 53.6499 118.833C53.9709 118.276 54.4185 117.803 54.9564 117.452C55.1493 117.293 55.3865 117.196 55.6361 117.175C55.8857 117.155 56.1356 117.211 56.3522 117.337C56.5687 117.463 56.7414 117.652 56.8469 117.879C56.9525 118.106 56.9858 118.36 56.9424 118.607V118.684L53.1089 120.901ZM55.8185 117.483C55.5625 117.496 55.3138 117.573 55.0949 117.706C54.6392 118.009 54.2531 118.405 53.9624 118.868C53.6717 119.331 53.4831 119.851 53.4091 120.393L56.6499 118.522C56.6638 118.341 56.6308 118.16 56.5539 117.995C56.477 117.831 56.359 117.689 56.2111 117.583C56.0955 117.502 55.9597 117.454 55.8185 117.445V117.483Z" fill="#EEEEF1"/>
<path d="M59.8138 120.131C59.775 120.131 59.7378 120.116 59.7104 120.088C59.6829 120.061 59.6675 120.024 59.6675 119.985V115.074C59.6625 115.052 59.6624 115.03 59.6672 115.008C59.672 114.987 59.6816 114.967 59.6953 114.949C59.709 114.932 59.7264 114.918 59.7463 114.909C59.7661 114.899 59.7879 114.894 59.8099 114.894C59.832 114.894 59.8537 114.899 59.8736 114.909C59.8934 114.918 59.9108 114.932 59.9245 114.949C59.9382 114.967 59.9478 114.987 59.9527 115.008C59.9575 115.03 59.9574 115.052 59.9523 115.074V119.985C59.9524 120.022 59.938 120.058 59.9123 120.086C59.8865 120.113 59.8512 120.129 59.8138 120.131Z" fill="#EEEEF1"/>
<path d="M59.4289 116.213H59.3673C59.3495 116.205 59.3335 116.194 59.3202 116.181C59.307 116.167 59.2967 116.15 59.2902 116.132C59.2837 116.114 59.281 116.095 59.2824 116.075C59.2837 116.056 59.289 116.037 59.298 116.02L59.8061 114.835L60.3834 115.497C60.4088 115.524 60.423 115.56 60.423 115.597C60.423 115.634 60.4088 115.67 60.3834 115.697C60.355 115.723 60.318 115.737 60.2795 115.737C60.241 115.737 60.2039 115.723 60.1756 115.697L59.9061 115.382L59.5751 116.151C59.56 116.175 59.5378 116.194 59.5117 116.205C59.4855 116.216 59.4566 116.219 59.4289 116.213Z" fill="#EEEEF1"/>
<path d="M61.1455 119.361C61.1073 119.36 61.0712 119.344 61.0442 119.316C61.0171 119.289 61.0011 119.253 60.9993 119.215V114.304C60.9993 114.265 61.0147 114.228 61.0421 114.2C61.0695 114.173 61.1067 114.158 61.1455 114.158C61.1843 114.158 61.2215 114.173 61.2489 114.2C61.2764 114.228 61.2918 114.265 61.2918 114.304V119.215C61.2899 119.253 61.2739 119.289 61.2469 119.316C61.2198 119.344 61.1837 119.36 61.1455 119.361Z" fill="#EEEEF1"/>
<path d="M60.7221 115.459H60.6682C60.6505 115.451 60.6344 115.44 60.621 115.426C60.6075 115.412 60.5969 115.396 60.5897 115.378C60.5826 115.36 60.579 115.341 60.5793 115.322C60.5796 115.303 60.5836 115.284 60.5912 115.266L61.107 114.081L61.6766 114.743C61.6904 114.756 61.7013 114.772 61.7087 114.79C61.7161 114.808 61.72 114.827 61.72 114.847C61.72 114.866 61.7161 114.885 61.7087 114.903C61.7013 114.921 61.6904 114.937 61.6766 114.95C61.6487 114.974 61.6133 114.987 61.5766 114.987C61.5399 114.987 61.5044 114.974 61.4765 114.95L61.1994 114.635L60.8684 115.405C60.8515 115.426 60.8289 115.443 60.803 115.453C60.7771 115.462 60.7491 115.464 60.7221 115.459Z" fill="#EEEEF1"/>
<path d="M45.5572 131.301L23.6644 118.661V75.3369L45.5572 87.9692V131.301Z" fill="#CFCFCF"/>
<path d="M34.0488 86.4528L36.1735 87.6767V82.5576L34.0488 81.326V86.4528Z" fill="#C9C9C9"/>
<path d="M36.1735 82.5576L58.0586 69.9176L55.9417 68.6936L34.0488 81.3259L36.1735 82.5576Z" fill="#EEEEF1"/>
<path d="M28.1214 110.401L34.834 114.25C35.2226 114.502 35.5459 114.843 35.7774 115.245C36.0089 115.646 36.142 116.097 36.1657 116.559V120.701C36.1657 121.548 35.573 121.894 34.834 121.471L28.1214 117.622C27.7318 117.37 27.4073 117.029 27.1745 116.628C26.9417 116.226 26.8072 115.776 26.782 115.312V111.171C26.7897 110.324 27.3824 109.978 28.1214 110.401Z" fill="#C9C9C9"/>
<path d="M27.598 111.44L27.852 111.586V116.19L27.598 116.036V111.44Z" fill="#CFCFCF"/>
<path d="M28.6372 112.041L29.076 112.295V116.898L28.6372 116.636V112.041Z" fill="#CFCFCF"/>
<path d="M29.6764 112.633L29.9305 112.787V117.383L29.6764 117.237V112.633Z" fill="#CFCFCF"/>
<path d="M30.4616 113.08L30.9697 113.388V117.983L30.4616 117.683V113.08Z" fill="#CFCFCF"/>
<path d="M31.7549 113.834L32.0089 113.98V118.584L31.7549 118.438V113.834Z" fill="#CFCFCF"/>
<path d="M32.5016 114.258L33.0481 114.581V119.184L32.5016 118.861V114.258Z" fill="#CFCFCF"/>
<path d="M33.8333 115.035L34.0873 115.181V119.785L33.8333 119.631V115.035Z" fill="#CFCFCF"/>
<path d="M34.426 115.374L34.5492 115.443V120.046L34.426 119.969V115.374Z" fill="#CFCFCF"/>
<path d="M33.356 114.781L33.4869 114.858V119.461L33.356 119.384V114.781Z" fill="#CFCFCF"/>
<path d="M31.2622 113.557L31.393 113.634V118.23L31.2622 118.16V113.557Z" fill="#CFCFCF"/>
<path d="M30.1152 112.903L30.246 112.972V117.575L30.1152 117.498V112.903Z" fill="#CFCFCF"/>
<path d="M29.2992 112.449L29.4224 112.518V117.121L29.2992 117.044V112.449Z" fill="#CFCFCF"/>
<path d="M28.183 111.771L28.3062 111.84V116.444L28.183 116.367V111.771Z" fill="#CFCFCF"/>
<path d="M34.8648 115.636L35.1265 115.782V120.377L34.8648 120.231V115.636Z" fill="#CFCFCF"/>
<path d="M23.8722 194.608L107.887 243.105C108.92 243.629 110.062 243.902 111.22 243.902C112.379 243.902 113.521 243.629 114.554 243.105L298.634 136.874C300.474 135.812 300.474 134.087 298.634 133.025L214.619 84.5282C213.587 84.0006 212.445 83.7254 211.286 83.7254C210.127 83.7254 208.984 84.0006 207.952 84.5282L23.8722 190.759C22.0324 191.822 22.0324 193.546 23.8722 194.608Z" fill="#455A64"/>
<path d="M69.2822 217.125C70.7146 217.848 72.2965 218.224 73.9009 218.224C75.5053 218.224 77.0873 217.848 78.5197 217.125C81.0831 215.647 81.0831 213.276 78.5197 211.775C77.0884 211.049 75.5059 210.67 73.9009 210.67C72.2959 210.67 70.7135 211.049 69.2822 211.775C66.7188 213.276 66.7188 215.662 69.2822 217.125Z" fill="#263238"/>
<path d="M109.465 243.105L25.4503 194.608C23.8029 193.654 23.6336 192.176 24.9345 191.114C24.1128 191.764 23.4372 192.579 22.9518 193.508C22.4663 194.436 22.1819 195.456 22.1171 196.502V199.635C22.1803 200.792 22.515 201.917 23.094 202.92C23.6731 203.923 24.4803 204.776 25.4503 205.409L109.465 253.906C110.493 254.442 111.64 254.707 112.799 254.675V243.906C111.637 243.928 110.49 243.653 109.465 243.105Z" fill="#37474F"/>
<path d="M298.626 147.667C299.598 147.035 300.408 146.183 300.988 145.18C301.569 144.177 301.904 143.051 301.967 141.893V138.76C301.905 137.713 301.62 136.691 301.133 135.762C300.646 134.833 299.968 134.018 299.142 133.372C300.451 134.434 300.281 135.912 298.634 136.859L114.554 243.105C113.526 243.64 112.379 243.905 111.22 243.875V254.706C112.379 254.736 113.526 254.471 114.554 253.936L298.626 147.667Z" fill="#263238"/>
<path d="M121.728 233.06L41.3157 186.61C40.2072 185.971 40.2072 184.932 41.3157 184.301L196.752 94.5356C197.372 94.2205 198.058 94.0563 198.753 94.0563C199.449 94.0563 200.135 94.2205 200.755 94.5356L281.198 140.977C282.299 141.616 282.299 142.648 281.198 143.286L125.7 233.06C125.084 233.37 124.404 233.531 123.714 233.531C123.024 233.531 122.344 233.37 121.728 233.06Z" fill="white"/>
<path d="M89.3276 207.125L98.7113 201.706L95.586 199.905L86.2022 205.316L89.3276 207.125Z" fill="#F58634"/>
<path d="M201.902 142.132L211.286 136.712L208.153 134.911L198.776 140.33L201.902 142.132Z" fill="#F58634"/>
<path d="M220.662 131.301L230.045 125.881L226.92 124.08L217.536 129.492L220.662 131.301Z" fill="#F58634"/>
<path d="M250.776 112.325C251.14 112.508 251.542 112.603 251.95 112.603C252.357 112.603 252.759 112.508 253.124 112.325C253.265 112.277 253.388 112.186 253.475 112.064C253.561 111.943 253.608 111.797 253.608 111.648C253.608 111.499 253.561 111.353 253.475 111.232C253.388 111.11 253.265 111.019 253.124 110.971C252.76 110.785 252.358 110.688 251.95 110.688C251.542 110.688 251.139 110.785 250.776 110.971C250.635 111.019 250.512 111.11 250.425 111.232C250.338 111.353 250.292 111.499 250.292 111.648C250.292 111.797 250.338 111.943 250.425 112.064C250.512 112.186 250.635 112.277 250.776 112.325Z" fill="#263238"/>
<path d="M254.525 122.956C255.251 123.324 256.054 123.516 256.869 123.516C257.683 123.516 258.486 123.324 259.213 122.956C260.506 122.187 260.506 120.993 259.213 120.247C258.486 119.879 257.683 119.687 256.869 119.687C256.054 119.687 255.251 119.879 254.525 120.247C253.232 120.993 253.232 122.21 254.525 122.956Z" fill="#263238"/>
<path d="M251.215 118.245C252.077 117.745 252.031 116.913 251.115 116.382L235.719 107.476C235.223 107.21 234.672 107.066 234.11 107.055C233.548 107.045 232.991 107.168 232.486 107.414C231.623 107.915 231.67 108.746 232.586 109.277L248.028 118.184C248.518 118.441 249.061 118.581 249.614 118.591C250.167 118.602 250.715 118.484 251.215 118.245Z" fill="#263238"/>
<path d="M224.934 82.1266L225.458 81.8187C225.096 83.1323 224.92 84.49 224.934 85.8524V87.7307C224.934 94.4741 233.025 111.702 236.004 117.799C236.312 118.438 232.224 122.787 232.224 122.787L237.081 119.985C237.081 119.985 249.221 109.978 249.221 101.756V99.878C249.221 91.6182 243.786 81.7879 237.081 77.9159C233.694 75.9683 230.638 75.899 228.437 77.377L223.818 80.0251L224.934 82.1266ZM231.008 88.4312C231.008 84.5823 233.725 82.9888 237.081 84.9287C236.804 87.4151 241.346 95.1592 243.147 95.444C243.147 99.293 240.43 100.886 237.081 98.9466C235.319 97.7919 233.853 96.2381 232.803 94.4111C231.753 92.5841 231.149 90.5355 231.039 88.4312H231.008Z" fill="#3E4095"/>
<path d="M219.938 90.7406C220.077 98.9927 232.609 122.787 232.609 122.787C232.609 122.787 244.587 112.61 244.456 104.358V102.48C244.317 94.2277 238.721 84.4822 231.947 80.7256C225.173 76.969 219.799 80.6024 219.938 88.8623V90.7406ZM226.019 91.341C225.958 87.492 228.652 85.8524 232.031 87.7307C233.818 88.8536 235.314 90.382 236.399 92.1917C237.483 94.0013 238.126 96.0413 238.274 98.146C238.344 101.995 235.649 103.635 232.262 101.756C230.478 100.631 228.984 99.1021 227.899 97.2929C226.815 95.4837 226.171 93.4449 226.019 91.341Z" fill="#3E4095"/>
<path opacity="0.3" d="M219.938 90.7406C220.077 98.9927 232.609 122.787 232.609 122.787C232.609 122.787 244.587 112.61 244.456 104.358V102.48C244.317 94.2277 238.721 84.4822 231.947 80.7256C225.173 76.969 219.799 80.6024 219.938 88.8623V90.7406ZM226.019 91.341C225.958 87.492 228.652 85.8524 232.031 87.7307C233.818 88.8536 235.314 90.382 236.399 92.1917C237.483 94.0013 238.126 96.0413 238.274 98.146C238.344 101.995 235.649 103.635 232.262 101.756C230.478 100.631 228.984 99.1021 227.899 97.2929C226.815 95.4837 226.171 93.4449 226.019 91.341Z" fill="#0E0E12"/>
<path d="M102.537 200.798C110.32 205.278 128.564 202.022 143.29 193.515L183.742 170.168C198.469 161.661 204.088 151.146 196.29 146.674C188.492 142.201 170.233 145.473 155.491 153.971L115.116 177.288C100.397 185.787 94.7623 196.341 102.537 200.798Z" fill="#F0F0F0"/>
<path d="M220.315 5.06273H220.354L227.013 1.21378H227.066C231.262 -0.910848 236.866 -0.325802 242.901 3.60013C255.033 11.4058 264.294 29.4189 263.593 43.8217C263.239 51.0039 260.514 55.9306 256.303 58.1014H256.265L249.598 61.9503H249.552C245.357 64.0826 239.745 63.4899 233.702 59.5717C221.578 51.7583 212.317 33.7529 213.018 19.3501C213.387 12.1602 216.151 7.23355 220.315 5.06273Z" fill="#37474F"/>
<path d="M249.937 61.7502L256.288 58.0552H256.334C260.506 55.8766 263.262 50.95 263.616 43.7755C263.924 37.3555 262.254 30.2195 259.236 23.5916L252.57 27.4405C255.595 34.0684 257.265 41.2044 256.95 47.6322C256.619 54.6373 253.971 59.5101 249.937 61.7502Z" fill="#263238"/>
<path d="M233.733 59.5639C221.609 51.7506 212.348 33.7451 213.048 19.3423C213.749 4.93954 224.164 -0.41051 236.265 7.39518C248.367 15.2009 257.658 33.214 256.957 47.6168C256.257 62.0196 245.857 67.3696 233.733 59.5639Z" fill="#455A64"/>
<path d="M243.894 58.5479C251.045 58.8943 252.208 50.8499 252.362 47.3859C252.978 34.6843 244.464 18.1338 233.771 11.2442C231.493 9.64831 228.842 8.66727 226.073 8.39594C218.93 8.04954 217.767 16.0939 217.606 19.5579C216.99 32.2595 225.496 48.81 236.196 55.7381C238.474 57.334 241.126 58.315 243.894 58.5864V58.5479Z" fill="#FAFAFA"/>
<path d="M233.602 35.8621C233.686 35.8623 233.77 35.8467 233.848 35.8159C234.009 35.7637 234.148 35.66 234.244 35.5209C234.34 35.3818 234.388 35.2149 234.379 35.0461V16.702C234.379 16.4978 234.298 16.302 234.154 16.1577C234.01 16.0133 233.814 15.9322 233.61 15.9322C233.405 15.9322 233.21 16.0133 233.065 16.1577C232.921 16.302 232.84 16.4978 232.84 16.702V32.8137L224.272 21.8057C224.146 21.6424 223.959 21.536 223.754 21.51C223.549 21.484 223.342 21.5406 223.179 21.6671C223.016 21.7937 222.909 21.98 222.883 22.185C222.857 22.39 222.914 22.5969 223.04 22.7602L233.009 35.5619C233.079 35.653 233.169 35.7273 233.272 35.7792C233.374 35.8312 233.487 35.8595 233.602 35.8621Z" fill="#37474F"/>
<path d="M238.021 49.4335C238.056 49.4406 238.093 49.4406 238.128 49.4335C238.21 49.4085 238.279 49.3529 238.32 49.2782C238.362 49.2036 238.373 49.1158 238.352 49.0332L234.033 34.4919C234.009 34.4092 233.952 34.3396 233.876 34.2985C233.801 34.2573 233.712 34.248 233.629 34.2725C233.546 34.297 233.477 34.3533 233.436 34.4291C233.394 34.5049 233.385 34.5939 233.41 34.6766L237.72 49.218C237.742 49.2803 237.783 49.3343 237.837 49.3729C237.89 49.4114 237.954 49.4326 238.021 49.4335Z" fill="#3E4095"/>
<path d="M233.848 31.405C232.416 30.4889 231.192 31.1202 231.115 32.8137C231.12 33.7374 231.343 34.647 231.766 35.4683C232.188 36.2897 232.799 36.9996 233.548 37.5402C234.972 38.464 236.196 37.8327 236.281 36.1392C236.274 35.2147 236.051 34.3047 235.628 33.4824C235.206 32.6601 234.596 31.9486 233.848 31.405Z" fill="#3E4095"/>
<path d="M108.095 196.294L117.471 190.875L114.346 189.074L104.97 194.485L108.095 196.294Z" fill="#3E4095"/>
<path d="M126.855 185.463L136.239 180.044L133.106 178.243L123.73 183.654L126.855 185.463Z" fill="#3E4095"/>
<path d="M122.998 183.254C122.998 187.78 119.827 193.261 115.908 195.571C113.822 196.779 111.944 196.818 110.651 195.909C110.129 195.5 109.701 194.984 109.395 194.396C109.088 193.808 108.91 193.161 108.873 192.499C109.136 192.376 109.393 192.24 109.642 192.091C113.561 189.836 116.732 184.332 116.732 179.775C116.736 179.437 116.715 179.1 116.671 178.766C117.258 178.455 117.903 178.27 118.566 178.223C119.229 178.175 119.894 178.266 120.52 178.489C122.059 179.136 122.998 180.806 122.998 183.254Z" fill="#263238"/>
<path d="M123.637 173.955L123.506 173.878C121.536 172.831 118.888 173.024 115.908 174.732C109.866 178.22 104.962 186.703 104.962 193.685C104.962 197.195 106.201 199.651 108.203 200.79C110.204 201.929 112.906 201.737 115.901 200.02C121.944 196.533 126.84 188.042 126.84 181.06C126.847 177.55 125.631 175.094 123.637 173.955ZM115.939 195.555C113.845 196.764 111.967 196.802 110.674 195.886C109.535 195.117 108.842 193.577 108.842 191.46C108.842 186.941 112.021 181.453 115.939 179.143C117.725 178.112 119.349 177.935 120.558 178.466C122.051 179.105 122.991 180.775 122.991 183.239C122.998 187.796 119.827 193.3 115.908 195.571L115.939 195.555Z" fill="#37474F"/>
<path d="M120.92 178.674L120.835 178.628C119.557 177.942 117.825 178.073 115.908 179.174C111.99 181.437 108.811 186.941 108.811 191.491C108.811 193.8 109.581 195.34 110.913 196.11C112.244 196.879 113.992 196.725 115.908 195.601C119.827 193.338 122.998 187.834 122.998 183.285C122.998 181.006 122.205 179.405 120.92 178.674ZM115.908 193.954C114.23 194.924 112.722 194.955 111.675 194.216C110.766 193.577 110.204 192.353 110.204 190.659C110.312 188.681 110.885 186.755 111.876 185.039C112.867 183.323 114.248 181.865 115.908 180.783C116.448 180.406 117.067 180.161 117.718 180.066C118.369 179.971 119.033 180.03 119.657 180.236C120.858 180.752 121.613 182.092 121.613 184.085C121.505 186.063 120.933 187.988 119.942 189.703C118.951 191.417 117.569 192.874 115.908 193.954Z" fill="#3E4095"/>
<path d="M145.615 174.625L154.998 169.213L151.873 167.404L142.489 172.823L145.615 174.625Z" fill="#3E4095"/>
<path d="M164.382 163.794L173.758 158.382L170.633 156.573L161.249 161.992L164.382 163.794Z" fill="#3E4095"/>
<path d="M183.142 152.963L192.518 147.551L189.393 145.742L180.009 151.161L183.142 152.963Z" fill="#3E4095"/>
<path d="M136.454 102.595C136.552 102.464 136.69 102.368 136.846 102.32C137.003 102.273 137.17 102.276 137.325 102.33C137.479 102.384 137.612 102.486 137.705 102.621C137.798 102.756 137.845 102.917 137.84 103.08C137.9 103.518 137.855 103.965 137.709 104.382C137.564 104.8 137.321 105.177 137.001 105.482C136.385 106.013 135.761 105.798 135.615 104.997C135.556 104.559 135.601 104.113 135.746 103.695C135.892 103.278 136.135 102.901 136.454 102.595Z" fill="#3E4095"/>
<path d="M143.675 105.998L137.401 102.372L136.023 105.69L142.32 109.323L143.675 105.998Z" fill="#3E4095"/>
<path d="M142.713 106.206C143.328 105.682 143.944 105.898 144.098 106.698C144.155 107.136 144.108 107.58 143.961 107.996C143.814 108.412 143.571 108.788 143.251 109.092C142.636 109.623 142.012 109.408 141.866 108.607C141.81 108.169 141.857 107.723 142.004 107.306C142.151 106.889 142.394 106.512 142.713 106.206Z" fill="#3E4095"/>
<path d="M190.932 136.566C190.932 136.72 190.932 136.859 190.932 137.013C190.932 137.321 190.932 137.636 190.932 137.952C189.685 137.421 188.061 137.598 186.275 138.629C182.357 140.892 179.178 146.396 179.178 150.946C179.178 153.055 179.87 154.579 181.01 155.372C180.69 155.6 180.358 155.81 180.017 156.003L179.655 156.188L178.569 160.276L172.288 156.773C170.302 155.626 169.078 153.178 169.078 149.683C169.078 142.701 173.974 134.218 180.017 130.723C183.003 128.999 185.705 128.822 187.715 129.954L193.873 133.402L194.004 133.479L190.932 136.566Z" fill="#455A64"/>
<path d="M193.996 133.41L193.865 133.333C191.895 132.286 189.247 132.479 186.267 134.188C180.225 137.675 175.321 146.158 175.321 153.14C175.321 156.65 176.56 159.106 178.562 160.245C180.563 161.384 183.265 161.192 186.26 159.475C192.303 155.988 197.198 147.497 197.198 140.515C197.222 137.005 195.982 134.549 193.996 133.41ZM186.298 155.01C184.204 156.219 182.326 156.257 181.033 155.341C179.894 154.572 179.201 153.032 179.201 150.915C179.201 146.396 182.38 140.908 186.298 138.598C188.084 137.567 189.708 137.39 190.955 137.921C192.449 138.56 193.388 140.23 193.388 142.694C193.373 147.251 190.186 152.755 186.267 155.01H186.298Z" fill="#37474F"/>
<path d="M193.373 142.725C193.373 147.251 190.201 152.732 186.283 155.041C184.197 156.25 182.318 156.288 181.025 155.38C180.504 154.97 180.076 154.454 179.769 153.866C179.462 153.278 179.284 152.632 179.247 151.97C179.51 151.847 179.767 151.711 180.017 151.562C183.935 149.306 187.107 143.802 187.107 139.245C187.11 138.908 187.09 138.571 187.045 138.237C187.632 137.926 188.278 137.741 188.94 137.693C189.603 137.645 190.268 137.736 190.894 137.96C192.418 138.606 193.373 140.261 193.373 142.725Z" fill="#263238"/>
<path d="M191.279 138.129L191.194 138.075C189.916 137.398 188.176 137.521 186.267 138.629C182.349 140.892 179.17 146.389 179.17 150.946C179.17 153.255 179.94 154.795 181.271 155.565C182.603 156.334 184.351 156.173 186.267 155.049C190.186 152.793 193.357 147.289 193.357 142.732C193.373 140.461 192.603 138.868 191.279 138.129ZM186.267 153.402C184.582 154.379 183.073 154.41 182.034 153.671C181.117 153.032 180.563 151.808 180.563 150.115C180.671 148.136 181.244 146.211 182.235 144.495C183.226 142.779 184.607 141.32 186.267 140.238C187.699 139.407 189.008 139.26 190.009 139.692C191.209 140.207 191.964 141.547 191.964 143.541C191.857 145.516 191.285 147.439 190.296 149.153C189.306 150.866 187.926 152.322 186.267 153.402Z" fill="#3E4095"/>
<path d="M180.009 145.026L197.714 134.803C199.77 133.61 193.095 126.644 188.13 126.174C185.397 125.844 182.624 126.106 180.001 126.944C180.001 126.944 183.781 131.786 183.134 134.534C182.488 137.282 180.009 145.026 180.009 145.026Z" fill="#3E4095"/>
<path d="M154.998 116.136C154.998 116.136 180.663 129.084 181.772 129.861C182.88 130.639 181.772 139.668 180.009 145.026C178.246 150.384 175.537 158.621 174.451 160.93C173.366 163.239 171.949 164.102 169.347 165.603L150.872 176.28L125.862 179.328L115.932 173.94L118.518 157.689C118.518 157.689 145.099 143.548 148.74 141.447C152.381 139.345 163.151 129.484 154.998 116.136Z" fill="#3E4095"/>
<path opacity="0.2" d="M154.998 116.136C154.998 116.136 180.663 129.084 181.772 129.861C182.88 130.639 181.772 139.668 180.009 145.026C178.246 150.384 175.537 158.621 174.451 160.93C173.366 163.239 171.949 164.102 169.347 165.603L150.872 176.28L125.862 179.328L115.932 173.94L118.518 157.689C118.518 157.689 145.099 143.548 148.74 141.447C152.381 139.345 163.151 129.484 154.998 116.136Z" fill="black"/>
<path d="M182.265 141.939C184.574 135.735 186.298 130.593 186.006 127.121C185.652 123.002 184.112 119.638 177.322 117.945C170.533 116.251 161.041 116.282 161.041 116.282L158.155 117.953C158.155 117.953 177.677 129.269 179.894 130.5C181.248 131.27 182.696 134.665 180.04 145.034L180.494 145.296C180.717 145.434 181.526 143.933 182.265 141.939Z" fill="#3E4095"/>
<path opacity="0.3" d="M182.265 141.939C184.574 135.735 186.298 130.593 186.006 127.121C185.652 123.002 184.112 119.638 177.322 117.945C170.533 116.251 161.041 116.282 161.041 116.282L158.155 117.953C158.155 117.953 177.677 129.269 179.894 130.5C181.248 131.27 182.696 134.665 180.04 145.034L180.494 145.296C180.717 145.434 181.526 143.933 182.265 141.939Z" fill="white"/>
<path d="M167.477 123.357L170.633 121.555C170.633 121.555 170.448 110.617 165.845 107.961C161.242 105.305 145.615 107.114 145.615 107.114L142.489 108.915L167.477 123.357Z" fill="#3E4095"/>
<path d="M157.239 110.463C155.737 111.332 155.737 112.733 157.239 113.596C158.08 114.024 159.011 114.248 159.956 114.248C160.9 114.248 161.832 114.024 162.673 113.596C164.167 112.733 164.167 111.325 162.673 110.463C161.83 110.038 160.9 109.816 159.956 109.816C159.012 109.816 158.081 110.038 157.239 110.463Z" fill="#F0F0F0"/>
<path d="M162.042 115.689C160.987 116.305 160.987 117.298 162.042 117.906C162.638 118.211 163.297 118.37 163.967 118.37C164.636 118.37 165.295 118.211 165.891 117.906C166.953 117.298 166.953 116.305 165.891 115.689C165.294 115.388 164.635 115.231 163.967 115.231C163.298 115.231 162.639 115.388 162.042 115.689Z" fill="#F0F0F0"/>
<path d="M149.949 109.069C148.886 109.677 148.886 110.67 149.949 111.286C150.545 111.587 151.205 111.744 151.873 111.744C152.542 111.744 153.201 111.587 153.798 111.286C154.86 110.67 154.86 109.677 153.798 109.069C153.202 108.765 152.542 108.606 151.873 108.606C151.204 108.606 150.544 108.765 149.949 109.069Z" fill="#F0F0F0"/>
<path d="M167.969 120.185C168.585 119.654 169.201 119.869 169.355 120.67C169.412 121.109 169.365 121.555 169.218 121.972C169.071 122.389 168.828 122.766 168.508 123.072C168.41 123.203 168.273 123.299 168.116 123.347C167.96 123.394 167.792 123.391 167.638 123.337C167.483 123.283 167.35 123.181 167.258 123.046C167.165 122.911 167.118 122.75 167.123 122.587C167.063 122.148 167.109 121.701 167.257 121.284C167.404 120.866 167.648 120.49 167.969 120.185Z" fill="#3E4095"/>
<path d="M175.152 123.587L168.87 119.962L167.5 123.28L173.789 126.905L175.152 123.587Z" fill="#3E4095"/>
<path d="M174.182 123.795C174.28 123.664 174.417 123.568 174.574 123.52C174.73 123.473 174.898 123.476 175.052 123.53C175.207 123.584 175.34 123.686 175.432 123.821C175.525 123.956 175.572 124.117 175.567 124.28C175.626 124.719 175.58 125.165 175.433 125.583C175.285 126 175.041 126.377 174.721 126.682C174.105 127.213 173.489 126.99 173.335 126.197C173.278 125.758 173.324 125.312 173.471 124.895C173.619 124.478 173.862 124.101 174.182 123.795Z" fill="#3E4095"/>
<path d="M174.182 123.795C174.28 123.664 174.417 123.568 174.574 123.52C174.73 123.473 174.898 123.476 175.052 123.53C175.207 123.584 175.34 123.686 175.432 123.821C175.525 123.956 175.572 124.117 175.567 124.28C175.626 124.719 175.58 125.165 175.433 125.583C175.285 126 175.041 126.377 174.721 126.682C174.105 127.213 173.489 126.99 173.335 126.197C173.278 125.758 173.324 125.312 173.471 124.895C173.619 124.478 173.862 124.101 174.182 123.795Z" fill="black"/>
<path d="M120.573 177.096C120.573 177.25 120.573 177.388 120.573 177.542C120.573 177.85 120.573 178.166 120.573 178.481C119.326 177.95 117.702 178.127 115.955 179.159C112.036 181.422 108.857 186.926 108.857 191.475C108.857 193.585 109.55 195.109 110.689 195.902C110.369 196.129 110.038 196.34 109.696 196.533L109.334 196.718L108.249 200.805L101.968 197.303C99.9815 196.156 98.7575 193.708 98.7575 190.213C98.7575 183.231 103.653 174.748 109.696 171.253C112.683 169.529 115.385 169.352 117.394 170.483L123.552 173.932L123.683 174.009L120.573 177.096Z" fill="#455A64"/>
<path d="M101.837 164.879L97.1487 181.129L106.532 186.549L111.39 170.399L101.837 164.879Z" fill="#3E4095"/>
<path opacity="0.2" d="M101.837 164.879L97.1487 181.129L106.532 186.549L111.39 170.399L101.837 164.879Z" fill="black"/>
<path d="M101.837 164.879C101.837 164.879 107.156 169.398 111.39 170.399C116.948 171.746 125.785 171.892 128.918 172.107C133.706 172.438 137.324 172.431 139.018 171.823C141.212 171.053 147.108 167.627 148.74 166.688C151.865 164.887 153.197 157.797 144.583 155.857C138.759 154.65 132.826 154.044 126.878 154.048L101.837 164.879Z" fill="#3E4095"/>
<path d="M154.883 162.801C154.615 163.47 154.434 164.171 154.344 164.887C154.096 165.63 154.038 166.424 154.175 167.196C154.762 168.167 155.685 168.887 156.769 169.221C157.55 169.394 158.358 169.405 159.144 169.253C159.929 169.101 160.674 168.788 161.334 168.335C162.927 167.381 164.128 166.226 166.391 165.58C168.009 165.237 169.533 164.546 170.856 163.555C172.111 162.547 173.789 159.76 171.387 159.113C168.986 158.467 163.766 160.745 159.009 160.953L154.883 162.801Z" fill="#37474F"/>
<path d="M154.883 159.829V163.386C155.029 163.785 155.282 164.137 155.615 164.402C155.947 164.667 156.347 164.835 156.769 164.887C157.156 164.943 157.55 164.901 157.916 164.764C158.493 164.543 158.992 164.159 159.353 163.659C159.714 163.158 159.921 162.563 159.948 161.946L160.087 159.829H154.883Z" fill="#FFA8A7"/>
<path d="M161.657 137.836C161.657 142.263 160.41 161.4 160.41 161.4C160.41 161.4 158.601 163.709 154.667 161.4L153.343 140.015L161.657 137.836Z" fill="#37474F"/>
<path d="M141.027 156.696L153.343 149.599C153.848 149.334 154.271 148.936 154.566 148.448C154.861 147.96 155.016 147.401 155.016 146.831C155.016 146.261 154.861 145.702 154.566 145.214C154.271 144.727 153.848 144.329 153.343 144.064L144.168 138.768C143.651 138.506 143.08 138.37 142.501 138.37C141.922 138.37 141.351 138.506 140.834 138.768L128.518 145.865C128.015 146.132 127.595 146.53 127.302 147.018C127.008 147.506 126.853 148.064 126.853 148.633C126.853 149.202 127.008 149.76 127.302 150.247C127.595 150.735 128.015 151.133 128.518 151.4L137.694 156.696C138.21 156.958 138.781 157.094 139.36 157.094C139.939 157.094 140.51 156.958 141.027 156.696Z" fill="#3E4095"/>
<path d="M141.027 156.696L153.343 149.599C153.848 149.334 154.271 148.936 154.566 148.448C154.861 147.96 155.016 147.401 155.016 146.831C155.016 146.261 154.861 145.702 154.566 145.214C154.271 144.727 153.848 144.329 153.343 144.064L144.168 138.768C143.651 138.506 143.08 138.37 142.501 138.37C141.922 138.37 141.351 138.506 140.834 138.768L128.518 145.865C128.015 146.132 127.595 146.53 127.302 147.018C127.008 147.506 126.853 148.064 126.853 148.633C126.853 149.202 127.008 149.76 127.302 150.247C127.595 150.735 128.015 151.133 128.518 151.4L137.694 156.696C138.21 156.958 138.781 157.094 139.36 157.094C139.939 157.094 140.51 156.958 141.027 156.696Z" fill="white"/>
<path d="M128.518 147.79L137.694 153.086C138.21 153.348 138.781 153.484 139.36 153.484C139.939 153.484 140.51 153.348 141.027 153.086L153.343 145.988C153.544 145.92 153.719 145.791 153.843 145.618C153.967 145.445 154.033 145.238 154.033 145.026C154.033 144.814 153.967 144.607 153.843 144.434C153.719 144.262 153.544 144.132 153.343 144.064L144.167 138.768C143.651 138.506 143.08 138.37 142.501 138.37C141.922 138.37 141.351 138.506 140.834 138.768L128.518 145.865C128.317 145.933 128.142 146.063 128.018 146.236C127.895 146.408 127.828 146.615 127.828 146.827C127.828 147.04 127.895 147.247 128.018 147.419C128.142 147.592 128.317 147.721 128.518 147.79Z" fill="#3E4095"/>
<path d="M136.023 100.679L134.46 107.122L127.748 107.53L129.195 98.6001L136.023 100.679Z" fill="#FFA8A7"/>
<path d="M142.566 95.8288C142.566 95.8288 143.336 98.5539 143.021 98.7078C142.536 98.7818 142.043 98.7818 141.558 98.7078L142.566 95.8288Z" fill="#F28F8F"/>
<path d="M141.281 87.1302C142.359 88.4003 143.344 90.4865 142.582 95.5979C141.75 101.187 140.719 101.833 139.887 102.372C138.802 103.08 134.46 102.703 133.236 101.81C131.766 100.74 129.495 97.3453 128.956 93.9967C128.325 90.0631 129.642 85.6984 132.536 84.9517C136.608 83.897 140.365 86.0525 141.281 87.1302Z" fill="#FFA8A7"/>
<path d="M128.518 100.409C129.557 101.487 131.689 101.779 133.029 102.026C134.368 102.272 138.486 102.541 139.703 99.6085C140.919 96.6756 140.088 94.5663 141.581 93.8581C143.074 93.1499 144.568 92.6881 144.96 92.3186C145.353 91.9491 145.361 87.1225 141.35 84.6206C137.339 82.1188 131.196 81.5415 127.155 86.6144C124.091 90.5326 125.346 97.099 128.518 100.409Z" fill="#455A64"/>
<path d="M132.559 102.064C133.598 102.157 136.885 101.641 137.878 100.286C138.871 98.9311 139.272 96.5063 139.418 95.2361C139.431 94.7359 139.615 94.2551 139.938 93.8731C140.261 93.4911 140.705 93.2306 141.196 93.1346C142.189 92.8189 144.383 91.7412 144.383 91.7412V91.1408C145.091 91.0963 145.8 91.0963 146.508 91.1408C146.97 91.2255 146.715 91.9106 145.545 92.5033C144.375 93.0961 141.165 94.2431 140.673 94.6357C140.18 95.0283 139.949 96.6833 139.556 98.4461C139.164 100.209 137.948 102.842 132.559 102.064Z" fill="#37474F"/>
<path d="M141.797 109.354L145.646 107.145C146.015 106.029 145.422 105.467 144.375 105.536C143.328 105.605 143.652 104.589 143.013 104.304C142.174 103.919 141.697 104.135 141.319 103.958C140.942 103.781 140.78 103.334 140.288 103.28C138.086 103.073 136.585 106.213 136.585 106.213L141.797 109.354Z" fill="#F28F8F"/>
<path d="M115.67 137.621C115.67 137.621 132.675 129.192 135.638 127.829C138.602 126.467 143.251 124.488 145.722 124.488C146.688 124.568 147.593 124.993 148.27 125.686C148.947 126.379 149.352 127.293 149.41 128.26C149.442 129.745 149.357 131.23 149.156 132.702C144.484 134.234 139.709 135.436 134.868 136.297C127.794 137.528 115.67 137.621 115.67 137.621Z" fill="#37474F"/>
<path d="M117.517 132.748C117.517 136.243 117.186 139.876 118.641 142.432C120.096 144.988 127.979 150.9 135.4 149.66C140.249 148.844 154.644 142.216 154.644 142.216C154.644 142.216 161.626 139.653 161.657 137.829C161.703 135.142 161.519 131.355 155.43 131.516C149.879 131.663 133.506 135.08 133.506 135.08L117.517 132.748Z" fill="#455A64"/>
<path d="M122.267 105.059C124.9 102.31 126.678 102.08 127.94 102.418C130.842 103.249 133.651 104.373 136.323 105.775C136.323 105.775 135.307 115.612 140.118 118.445V133.78C140.118 133.78 139.972 135.442 137.878 137.097C136.031 138.552 131.851 140.023 126.863 139.607C120.935 139.114 117.517 132.748 117.517 132.748C117.517 132.748 117.363 120.208 118.202 115.228C119.188 109.416 121.359 106.013 122.267 105.059Z" fill="#455A64"/>
<path d="M140.118 119.192C140.118 119.192 137.209 116.883 136.323 113.88C136.323 113.88 136.67 118.592 140.118 120.978V119.192Z" fill="#37474F"/>
<path d="M167.053 126.428C168.435 126.485 169.795 126.064 170.902 125.235C170.902 125.235 172.242 122.633 173.889 122.856C173.889 122.856 174.182 121.748 173.504 121.386C172.827 121.024 172.534 121.124 172.257 120.739C171.98 120.354 171.949 119.638 170.718 119.638C170.21 119.638 170.279 119.277 169.047 119.13C167.816 118.984 166.599 121.825 165.699 121.825L167.053 126.428Z" fill="#FFA8A7"/>
<path d="M136.323 105.775C140.549 106.429 142.081 107.684 143.621 109.108C145.161 110.532 154.583 119.985 154.583 119.985L165.991 121.625C166.591 122.11 167.03 122.764 167.254 123.503C167.715 124.842 167.3 126.305 166.861 126.651C166.861 126.651 155.545 127.329 153.32 126.905C151.096 126.482 140.08 119.169 140.08 119.169C139.027 118.375 138.144 117.378 137.483 116.237C136.822 115.096 136.396 113.834 136.231 112.526C135.515 107.884 136.323 105.775 136.323 105.775Z" fill="#455A64"/>
<path d="M126.177 146.435L108.696 167.774C108.501 167.798 108.306 167.811 108.11 167.812C107.417 167.823 106.732 167.662 106.117 167.342L91.3521 158.813L90.3514 158.236C89.8048 157.92 89.3506 156.627 89.3506 155.349V151.754C89.3501 148.061 90.3215 144.433 92.1673 141.235C94.0131 138.037 96.6683 135.38 99.866 133.533L117.494 123.357L136.254 134.187L126.177 146.435Z" fill="#3E4095"/>
<g opacity="0.1">
<path d="M126.177 146.435L108.696 167.774C108.501 167.798 108.306 167.811 108.11 167.812C107.417 167.823 106.732 167.662 106.117 167.342L91.3521 158.813L90.3514 158.236C89.8048 157.92 89.3506 156.627 89.3506 155.349V151.754C89.3501 148.061 90.3215 144.433 92.1673 141.235C94.0131 138.037 96.6683 135.38 99.866 133.533L117.494 123.357L136.254 134.187L126.177 146.435Z" fill="black"/>
</g>
<path d="M120.15 153.794L136.231 134.195L117.471 123.364L99.8506 133.533C97.5713 134.853 95.5606 136.589 93.9232 138.652L120.15 153.794Z" fill="#3E4095"/>
<path d="M136.231 149.93C136.231 151.208 135.784 152.501 135.23 152.816L134.23 153.394L110.089 167.335C109.65 167.571 109.169 167.72 108.672 167.774C108.478 167.798 108.283 167.811 108.087 167.812V162.585C108.087 158.891 109.059 155.263 110.906 152.064C112.754 148.865 115.411 146.21 118.61 144.364L120.604 143.217L136.231 134.188V149.93Z" fill="#3E4095"/>
<g opacity="0.2">
<path d="M136.231 149.93C136.231 151.208 135.784 152.501 135.23 152.816L134.23 153.394L110.089 167.335C109.65 167.571 109.169 167.72 108.672 167.774C108.478 167.798 108.283 167.811 108.087 167.812V162.585C108.087 158.891 109.059 155.263 110.906 152.064C112.754 148.865 115.411 146.21 118.61 144.364L120.604 143.217L136.231 134.188V149.93Z" fill="black"/>
</g>
<path d="M141.412 176.334L150.857 176.303L164.375 168.497L151.134 178.066L141.165 178.204L141.412 176.334Z" fill="#E0E0E0"/>
<path d="M118.48 189.774C118.48 189.774 135.507 183.354 136.955 182.6C138.653 181.559 140.265 180.382 141.773 179.082C142.081 178.675 142.226 178.167 142.179 177.659C142.132 177.15 141.897 176.678 141.519 176.334C141.519 176.334 134.591 176.018 132.813 176.565C131.82 176.865 115.793 182.007 115.793 182.007L118.48 189.774Z" fill="#E0E0E0"/>
<path d="M117.717 182.6C116.309 181.391 114.892 181.892 114.546 183.708C114.414 184.711 114.52 185.73 114.855 186.684C115.191 187.637 115.747 188.498 116.478 189.197C117.887 190.405 119.303 189.913 119.65 188.088C119.781 187.086 119.675 186.067 119.339 185.113C119.004 184.16 118.448 183.299 117.717 182.6Z" fill="#455A64"/>
</svg>
