<svg width="16" height="16" viewBox="0 0 16 16" fill="none" xmlns="http://www.w3.org/2000/svg">
<rect y="0.321289" width="15.3574" height="15.3574" rx="7.67868" fill="#F58634"/>
<path d="M7.67871 5.76024V2.24084" stroke="white" stroke-width="0.959835" stroke-linecap="round" stroke-linejoin="round"/>
<path d="M7.67871 13.7589V10.2395" stroke="white" stroke-width="0.959835" stroke-linecap="round" stroke-linejoin="round"/>
<path d="M6.39893 2.24084H8.95849" stroke="white" stroke-width="0.959835" stroke-linecap="round" stroke-linejoin="round"/>
<path d="M6.39893 13.7588H8.95849" stroke="white" stroke-width="0.959835" stroke-linecap="round" stroke-linejoin="round"/>
<path d="M5.73972 6.87994L2.69385 5.12024" stroke="white" stroke-width="0.959835" stroke-linecap="round" stroke-linejoin="round"/>
<path d="M12.6633 10.8793L9.61743 9.11963" stroke="white" stroke-width="0.959835" stroke-linecap="round" stroke-linejoin="round"/>
<path d="M2.05396 6.22732L3.33374 4.01331" stroke="white" stroke-width="0.959835" stroke-linecap="round" stroke-linejoin="round"/>
<path d="M12.0237 11.9864L13.3035 9.77234" stroke="white" stroke-width="0.959835" stroke-linecap="round" stroke-linejoin="round"/>
<path d="M9.9182 7.99987C9.9182 8.4094 9.80941 8.78693 9.61745 9.11968C9.22711 9.79156 8.50404 10.2395 7.67858 10.2395C6.85312 10.2395 6.13005 9.79156 5.73971 9.11968C5.54775 8.78693 5.43896 8.4094 5.43896 7.99987C5.43896 7.59034 5.54775 7.2128 5.73971 6.88006C6.13005 6.20818 6.85312 5.76025 7.67858 5.76025C8.50404 5.76025 9.22711 6.20818 9.61745 6.88006C9.80941 7.2128 9.9182 7.59034 9.9182 7.99987Z" stroke="white" stroke-width="0.959835" stroke-linecap="round" stroke-linejoin="round"/>
<path d="M12.6633 5.12024L9.61743 6.87994" stroke="white" stroke-width="0.959835" stroke-linecap="round" stroke-linejoin="round"/>
<path d="M5.73972 9.11963L2.69385 10.8793" stroke="white" stroke-width="0.959835" stroke-linecap="round" stroke-linejoin="round"/>
<path d="M13.3035 6.22732L12.0237 4.01331" stroke="white" stroke-width="0.959835" stroke-linecap="round" stroke-linejoin="round"/>
<path d="M3.33374 11.9864L2.05396 9.77234" stroke="white" stroke-width="0.959835" stroke-linecap="round" stroke-linejoin="round"/>
</svg>
