<svg width="22" height="22" viewBox="0 0 22 22" fill="none" xmlns="http://www.w3.org/2000/svg">
<path d="M11 7.33329C8.97419 7.33329 7.33335 8.97413 7.33335 11C7.33335 13.0258 8.97419 14.6666 11 14.6666C13.0259 14.6666 14.6667 13.0258 14.6667 11C14.6667 8.97413 13.0259 7.33329 11 7.33329ZM19.195 10.0833C18.7734 6.26079 15.7392 3.22663 11.9167 2.80496V1.83329C11.9167 1.32913 11.5042 0.916626 11 0.916626C10.4959 0.916626 10.0834 1.32913 10.0834 1.83329V2.80496C6.26085 3.22663 3.22669 6.26079 2.80502 10.0833H1.83335C1.32919 10.0833 0.916687 10.4958 0.916687 11C0.916687 11.5041 1.32919 11.9166 1.83335 11.9166H2.80502C3.22669 15.7391 6.26085 18.7733 10.0834 19.195V20.1666C10.0834 20.6708 10.4959 21.0833 11 21.0833C11.5042 21.0833 11.9167 20.6708 11.9167 20.1666V19.195C15.7392 18.7733 18.7734 15.7391 19.195 11.9166H20.1667C20.6709 11.9166 21.0834 11.5041 21.0834 11C21.0834 10.4958 20.6709 10.0833 20.1667 10.0833H19.195ZM11 17.4166C7.45252 17.4166 4.58335 14.5475 4.58335 11C4.58335 7.45246 7.45252 4.58329 11 4.58329C14.5475 4.58329 17.4167 7.45246 17.4167 11C17.4167 14.5475 14.5475 17.4166 11 17.4166Z" fill="#3E4095"/>
</svg>
