<svg width="29" height="24" viewBox="0 0 29 24" fill="none" xmlns="http://www.w3.org/2000/svg">
<path d="M16.3334 0C9.70671 0 4.33337 5.37333 4.33337 12H0.333374L5.52004 17.1867L5.61337 17.3733L11 12H7.00004C7.00004 6.84 11.1734 2.66667 16.3334 2.66667C21.4934 2.66667 25.6667 6.84 25.6667 12C25.6667 17.16 21.4934 21.3333 16.3334 21.3333C13.76 21.3333 11.4267 20.28 9.74671 18.5867L7.85337 20.48C10.0267 22.6533 13.0134 24 16.3334 24C22.96 24 28.3334 18.6267 28.3334 12C28.3334 5.37333 22.96 0 16.3334 0ZM15 6.66667V13.3333L20.6667 16.6933L21.6934 14.9867L17 12.2V6.66667H15Z" fill="#A7A7A7"/>
</svg>
