<svg width="28" height="28" viewBox="0 0 28 28" fill="none" xmlns="http://www.w3.org/2000/svg">
<path d="M12.6667 22H15.3334V19.3333H12.6667V22ZM14 0.666626C6.64002 0.666626 0.666687 6.63996 0.666687 14C0.666687 21.36 6.64002 27.3333 14 27.3333C21.36 27.3333 27.3334 21.36 27.3334 14C27.3334 6.63996 21.36 0.666626 14 0.666626ZM14 24.6666C8.12002 24.6666 3.33335 19.88 3.33335 14C3.33335 8.11996 8.12002 3.33329 14 3.33329C19.88 3.33329 24.6667 8.11996 24.6667 14C24.6667 19.88 19.88 24.6666 14 24.6666ZM14 5.99996C11.0534 5.99996 8.66669 8.38663 8.66669 11.3333H11.3334C11.3334 9.86663 12.5334 8.66663 14 8.66663C15.4667 8.66663 16.6667 9.86663 16.6667 11.3333C16.6667 14 12.6667 13.6666 12.6667 18H15.3334C15.3334 15 19.3334 14.6666 19.3334 11.3333C19.3334 8.38663 16.9467 5.99996 14 5.99996Z" fill="#A7A7A7"/>
</svg>
